<svg width="836" height="574" viewBox="0 0 836 574" fill="none" xmlns="http://www.w3.org/2000/svg">
<g clip-path="url(#clip0_263_1318)">
<path d="M836.005 573.88H0C9.16002 550.576 26.0771 530.807 49.9241 524.942C84.8093 516.375 121.727 539.934 156.533 531.075C176.309 526.047 191.877 511.397 208.236 499.229C269.956 453.33 354.527 439.762 427.559 464.059C465.732 476.752 500.516 498.95 539.621 508.383C590.188 520.591 643.068 510.467 695.069 508.798C745.714 507.18 818.278 527.766 836.005 573.88Z" fill="#F3F5FD"/>
<path d="M538.235 8.21582H309.166C291.624 8.21582 277.404 22.4015 277.404 39.9003V534.099C277.404 551.598 291.624 565.783 309.166 565.783H538.235C555.777 565.783 569.997 551.598 569.997 534.099V39.9003C569.997 22.4015 555.777 8.21582 538.235 8.21582Z" fill="white"/>
<path d="M538.236 574H309.166C298.562 573.987 288.395 569.779 280.897 562.299C273.399 554.819 269.181 544.677 269.169 534.099V39.9013C269.181 29.3229 273.399 19.1813 280.897 11.7011C288.395 4.22086 298.562 0.0128151 309.166 0L538.236 0C548.84 0.0128151 559.007 4.22086 566.505 11.7011C574.003 19.1813 578.221 29.3229 578.233 39.9013V534.099C578.221 544.677 574.003 554.819 566.505 562.299C559.007 569.779 548.84 573.987 538.236 574ZM309.166 16.4326C302.928 16.439 296.948 18.9136 292.537 23.3134C288.126 27.7132 285.645 33.6788 285.638 39.9013V534.099C285.646 540.32 288.126 546.284 292.536 550.683C296.946 555.082 302.925 557.557 309.161 557.565H538.232C544.468 557.557 550.447 555.082 554.857 550.683C559.266 546.284 561.747 540.32 561.755 534.099V39.9013C561.747 33.6801 559.266 27.7159 554.857 23.3168C550.447 18.9178 544.468 16.4431 538.232 16.4354L309.166 16.4326Z" fill="#DEE8F5"/>
<path d="M373.544 8.21582H473.857V27.632C473.857 29.5404 473.48 31.4302 472.748 33.1934C472.015 34.9565 470.942 36.5586 469.589 37.908C468.237 39.2574 466.631 40.3279 464.863 41.0581C463.096 41.7883 461.201 42.1641 459.288 42.164H388.112C384.248 42.164 380.543 40.6329 377.81 37.9074C375.078 35.1819 373.543 31.4854 373.543 27.631V8.21582H373.544Z" fill="#DEE8F5"/>
<path d="M471.741 128.242C471.741 137.72 468.922 146.985 463.643 154.866C458.363 162.746 450.86 168.888 442.081 172.514C433.302 176.141 423.643 177.089 414.324 175.239C405.006 173.389 396.446 168.824 389.728 162.121C383.01 155.418 378.436 146.878 376.583 137.582C374.73 128.286 375.682 118.65 379.319 109.893C382.956 101.137 389.114 93.6529 397.015 88.3878C404.916 83.1227 414.204 80.3129 423.706 80.3138C430.021 80.2899 436.279 81.5134 442.119 83.9136C447.958 86.3139 453.263 89.8435 457.729 94.2989C462.194 98.7543 465.731 104.047 468.136 109.873C470.541 115.699 471.767 121.942 471.741 128.242Z" fill="#C1D8ED"/>
<path d="M423.701 133.18C434.206 133.18 442.722 124.685 442.722 114.205C442.722 103.726 434.206 95.2305 423.701 95.2305C413.196 95.2305 404.68 103.726 404.68 114.205C404.68 124.685 413.196 133.18 423.701 133.18Z" fill="white"/>
<path d="M458.319 161.467C453.838 166.116 448.462 169.814 442.514 172.341C436.566 174.867 430.168 176.17 423.703 176.171C417.238 176.172 410.84 174.871 404.891 172.346C398.943 169.821 393.566 166.124 389.084 161.477C395.562 147.034 408.64 137.164 423.706 137.164C438.772 137.164 451.84 147.024 458.319 161.467Z" fill="white"/>
<path d="M524.914 210.718H322.487V254.77H524.914V210.718Z" fill="#367CFF" fill-opacity="0.65"/>
<path d="M524.914 286.855H322.487V330.908H524.914V286.855Z" fill="#C1D8ED"/>
<path d="M667.85 187.589C667.85 187.589 660.344 184.373 660.344 164.699L645.255 163.166C645.255 163.166 648.364 180.55 641.302 186.725L667.85 187.589Z" fill="#E98862"/>
<path d="M668.156 156.432C667.615 162.445 664.832 168.325 659.747 170.668C654.219 173.399 648.105 174.738 641.939 174.569C625.558 174.569 625.742 137.398 632.879 129.593C640.015 121.788 663.059 124.478 666.802 136.243C668.736 142.332 668.669 150.709 668.156 156.432Z" fill="#E98862"/>
<path d="M644.392 153.773C645.139 153.773 645.745 153.169 645.745 152.424C645.745 151.679 645.139 151.074 644.392 151.074C643.645 151.074 643.04 151.679 643.04 152.424C643.04 153.169 643.645 153.773 644.392 153.773Z" fill="#367CFF"/>
<path d="M647.051 149.751C647.018 149.751 646.985 149.749 646.952 149.744L643.362 149.185C643.277 149.175 643.195 149.148 643.121 149.106C643.047 149.063 642.982 149.007 642.931 148.939C642.879 148.871 642.842 148.793 642.821 148.711C642.8 148.628 642.796 148.542 642.809 148.458C642.822 148.374 642.852 148.293 642.897 148.221C642.942 148.149 643.001 148.086 643.071 148.037C643.141 147.988 643.22 147.953 643.303 147.936C643.387 147.918 643.473 147.917 643.557 147.933L647.147 148.491C647.305 148.516 647.448 148.599 647.547 148.723C647.647 148.848 647.695 149.006 647.684 149.165C647.672 149.324 647.601 149.473 647.484 149.582C647.367 149.69 647.213 149.751 647.054 149.752L647.051 149.751Z" fill="#367CFF"/>
<path d="M633.786 158.15C633.786 159.668 634.39 161.123 635.466 162.195C636.541 163.268 638 163.871 639.52 163.871C641.041 163.871 642.5 163.268 643.575 162.195C644.65 161.123 645.255 159.668 645.255 158.15C645.28 156.659 644.71 155.218 643.671 154.145C642.632 153.073 641.208 152.456 639.713 152.43C639.648 152.43 639.585 152.43 639.52 152.43C635.436 152.63 633.786 154.991 633.786 158.15Z" fill="#E98862"/>
<path d="M633.739 144.696C630.559 144.671 627.387 144.404 624.248 143.898C624.248 143.898 625.209 119.759 650.907 121.135C654.243 120.983 657.587 121.18 660.883 121.723C668.607 122.903 679.557 130.781 681.325 150.496C682.135 159.541 685.261 168.067 687.646 173.465C687.927 174.099 688.046 174.792 687.991 175.484C687.936 176.175 687.709 176.841 687.33 177.422C686.951 178.004 686.433 178.482 685.823 178.813C685.212 179.144 684.528 179.317 683.833 179.318L628.777 178.881C628.126 178.881 627.484 178.729 626.903 178.438C626.321 178.146 625.816 177.723 625.428 177.202C625.039 176.681 624.779 176.077 624.666 175.437C624.554 174.797 624.593 174.141 624.781 173.519C627.776 163.625 633.258 157.561 633.739 144.696Z" fill="#0F1011"/>
<path d="M537.048 246.578C537.048 246.578 523.793 242.912 521.889 240.384C519.985 237.857 524.614 229.351 524.614 229.351C524.614 229.351 511.359 223.938 512.633 221.801C514.14 219.278 530.691 228.307 530.691 228.307C530.691 228.307 527.091 224.062 528.852 222.94C529.577 222.474 530.519 222.982 533.209 225.924C536.274 229.276 541.574 234.034 541.574 234.034L537.048 246.578Z" fill="#E98862"/>
<path d="M602.998 563.808C600.932 546.471 600.932 544.688 600.932 544.103H620.535C620.535 544.043 620.535 543.967 620.535 543.873C620.604 545.321 621.593 554.15 622.469 561.5L602.998 563.808Z" fill="#E98862"/>
<path d="M681.103 566.146C681.103 566.146 681.038 545.895 681.038 544.103H700.64C700.64 545.889 700.706 566.078 700.706 566.078L681.103 566.146Z" fill="#E98862"/>
<path d="M709.496 319.298C709.496 322.073 708.028 331.349 710.39 332.012C711.806 332.41 713.479 325.494 713.479 325.494" fill="#E98862"/>
<path d="M720.649 317.84C720.649 317.84 728.363 336.57 719.564 347.33C719.34 347.604 719.038 347.805 718.698 347.905C718.358 348.005 717.995 348 717.657 347.892C717.32 347.783 717.023 347.575 716.806 347.295C716.589 347.015 716.462 346.677 716.441 346.323C716.013 339.069 714.547 324.167 709.751 325.907V314.209" fill="#E98862"/>
<path d="M697.864 439.024C695.97 409.803 692.7 360.787 691.094 332.026H691.359L688.596 285.746L617.582 290.118L616.852 295.081L616.603 295.008C608.28 339.018 604.73 387.689 597.983 432.017C597.508 473.091 597.378 516.075 595.767 557.049L630.305 557.635C630.197 517.609 631.188 475.764 632.372 435.672C637.786 404.245 645.39 369.371 651.494 338.288C657.014 398.844 665.246 498.052 671.351 559.426L705.766 556.525L697.864 439.024Z" fill="#262626"/>
<path d="M657.276 573.708C656.773 573.705 656.275 573.604 655.81 573.41C655.346 573.215 654.925 572.932 654.57 572.575C654.216 572.218 653.936 571.795 653.745 571.33C653.555 570.865 653.458 570.367 653.46 569.865C653.46 569.772 653.464 569.678 653.472 569.585C653.528 568.859 653.792 568.163 654.232 567.581C654.671 566.999 655.268 566.554 655.953 566.299L678.769 558.676C679.211 558.53 679.68 558.481 680.142 558.532C680.605 558.583 681.051 558.734 681.45 558.973C684.587 561.144 688.339 562.254 692.155 562.139C695.127 561.928 697.98 560.889 700.388 559.138C700.6 558.965 700.857 558.856 701.128 558.822C701.4 558.789 701.676 558.834 701.923 558.951C702.171 559.068 702.379 559.253 702.525 559.484C702.671 559.715 702.749 559.983 702.748 560.256V571.385C702.748 572.047 702.485 572.681 702.016 573.149C701.547 573.616 700.911 573.879 700.248 573.879H700.238L657.276 573.708Z" fill="#C1D8ED"/>
<path d="M579.117 573.708C578.614 573.705 578.116 573.604 577.651 573.41C577.187 573.215 576.766 572.931 576.411 572.575C576.057 572.218 575.777 571.795 575.586 571.33C575.396 570.865 575.299 570.367 575.301 569.865C575.301 569.772 575.305 569.678 575.312 569.585C575.369 568.858 575.633 568.163 576.073 567.581C576.513 566.999 577.11 566.554 577.795 566.299L600.61 558.675C601.052 558.53 601.521 558.481 601.984 558.532C602.446 558.583 602.893 558.734 603.292 558.973C606.428 561.144 610.18 562.254 613.996 562.139C616.968 561.928 619.822 560.889 622.23 559.138C622.442 558.965 622.698 558.855 622.97 558.822C623.242 558.789 623.517 558.833 623.765 558.95C624.012 559.068 624.221 559.253 624.367 559.484C624.513 559.715 624.59 559.983 624.589 560.256V571.385C624.589 572.047 624.325 572.681 623.857 573.149C623.388 573.616 622.752 573.879 622.089 573.879H622.079L579.117 573.708Z" fill="#C1D8ED"/>
<path d="M716.355 260.223C716.252 259.537 716.08 258.862 715.84 258.21L694.414 200.091L694.286 200.139C693.354 197.277 691.747 194.68 689.599 192.568C685.334 188.315 677.949 185.561 668.954 185.561C655.565 185.561 637.277 185.59 633.53 185.747C622.08 186.237 616.727 191.357 614.539 198.918L587.765 246.867L541.332 229.635L534.498 247.963L588.813 268.125C591.008 268.941 593.424 268.945 595.622 268.137C597.82 267.329 599.654 265.761 600.793 263.719L615.735 236.96C616.131 240.764 616.427 244.502 616.468 248.066C616.826 278.299 608.644 283.994 612.676 293.237C616.591 302.199 693.441 305.928 694.468 290.149C695.122 280.113 686.254 271.347 686.254 251.784C686.328 248.066 686.821 244.369 687.722 240.761L696.376 264.233L704.87 321.32L725.004 318.341L716.355 260.223Z" fill="#367CFF"/>
<path d="M423.701 512.086C459.195 512.086 487.968 483.383 487.968 447.976C487.968 412.569 459.195 383.866 423.701 383.866C388.208 383.866 359.435 412.569 359.435 447.976C359.435 483.383 388.208 512.086 423.701 512.086Z" fill="#C1D8ED"/>
<path d="M383.734 419.418C376.363 477.556 424.724 493.403 424.724 493.403C424.724 493.403 469.125 476.549 464.022 419.56C464.022 419.56 438.11 425.004 424.724 405.516C424.724 405.516 414.882 424.407 383.734 419.418Z" fill="white"/>
<path d="M437.336 442.289H435.395V437.96C435.367 434.885 434.123 431.945 431.933 429.779C429.743 427.614 426.785 426.4 423.702 426.4C420.619 426.4 417.66 427.614 415.47 429.779C413.28 431.945 412.036 434.885 412.009 437.96V442.289H410.068C409.181 442.289 408.329 442.64 407.702 443.266C407.074 443.892 406.722 444.741 406.722 445.627V467.39C406.722 468.275 407.074 469.124 407.702 469.75C408.329 470.376 409.181 470.728 410.068 470.728H437.338C438.226 470.728 439.077 470.376 439.704 469.75C440.332 469.124 440.685 468.275 440.685 467.39V445.627C440.685 445.188 440.598 444.754 440.43 444.349C440.261 443.944 440.015 443.576 439.704 443.266C439.393 442.956 439.024 442.71 438.617 442.542C438.211 442.374 437.776 442.288 437.336 442.289ZM415.81 437.96C415.832 435.887 416.674 433.907 418.151 432.449C419.629 430.991 421.623 430.173 423.702 430.173C425.78 430.173 427.775 430.991 429.252 432.449C430.73 433.907 431.571 435.887 431.594 437.96V442.289H415.81V437.96Z" fill="#0CBC8B"/>
<path d="M342.509 239.849C346.443 239.849 349.631 236.668 349.631 232.744C349.631 228.82 346.443 225.639 342.509 225.639C338.575 225.639 335.387 228.82 335.387 232.744C335.387 236.668 338.575 239.849 342.509 239.849Z" fill="white"/>
<path d="M363.893 239.849C367.826 239.849 371.015 236.668 371.015 232.744C371.015 228.82 367.826 225.639 363.893 225.639C359.959 225.639 356.771 228.82 356.771 232.744C356.771 236.668 359.959 239.849 363.893 239.849Z" fill="white"/>
<path d="M385.277 239.849C389.211 239.849 392.399 236.668 392.399 232.744C392.399 228.82 389.211 225.639 385.277 225.639C381.344 225.639 378.155 228.82 378.155 232.744C378.155 236.668 381.344 239.849 385.277 239.849Z" fill="white"/>
<path d="M406.662 239.849C410.595 239.849 413.784 236.668 413.784 232.744C413.784 228.82 410.595 225.639 406.662 225.639C402.728 225.639 399.54 228.82 399.54 232.744C399.54 236.668 402.728 239.849 406.662 239.849Z" fill="white"/>
<path d="M428.046 239.849C431.979 239.849 435.168 236.668 435.168 232.744C435.168 228.82 431.979 225.639 428.046 225.639C424.112 225.639 420.923 228.82 420.923 232.744C420.923 236.668 424.112 239.849 428.046 239.849Z" fill="white"/>
<path d="M449.43 239.849C453.363 239.849 456.552 236.668 456.552 232.744C456.552 228.82 453.363 225.639 449.43 225.639C445.496 225.639 442.308 228.82 442.308 232.744C442.308 236.668 445.496 239.849 449.43 239.849Z" fill="white"/>
<path d="M470.051 239.849C473.985 239.849 477.173 236.668 477.173 232.744C477.173 228.82 473.985 225.639 470.051 225.639C466.117 225.639 462.929 228.82 462.929 232.744C462.929 236.668 466.117 239.849 470.051 239.849Z" fill="white"/>
<path d="M342.509 315.987C346.443 315.987 349.631 312.806 349.631 308.882C349.631 304.958 346.443 301.777 342.509 301.777C338.575 301.777 335.387 304.958 335.387 308.882C335.387 312.806 338.575 315.987 342.509 315.987Z" fill="white"/>
<path d="M363.893 315.987C367.826 315.987 371.015 312.806 371.015 308.882C371.015 304.958 367.826 301.777 363.893 301.777C359.959 301.777 356.771 304.958 356.771 308.882C356.771 312.806 359.959 315.987 363.893 315.987Z" fill="white"/>
<path d="M385.277 315.987C389.211 315.987 392.399 312.806 392.399 308.882C392.399 304.958 389.211 301.777 385.277 301.777C381.344 301.777 378.155 304.958 378.155 308.882C378.155 312.806 381.344 315.987 385.277 315.987Z" fill="white"/>
<path d="M406.662 315.987C410.595 315.987 413.784 312.806 413.784 308.882C413.784 304.958 410.595 301.777 406.662 301.777C402.728 301.777 399.54 304.958 399.54 308.882C399.54 312.806 402.728 315.987 406.662 315.987Z" fill="white"/>
<path d="M428.046 315.987C431.979 315.987 435.168 312.806 435.168 308.882C435.168 304.958 431.979 301.777 428.046 301.777C424.112 301.777 420.923 304.958 420.923 308.882C420.923 312.806 424.112 315.987 428.046 315.987Z" fill="white"/>
<path d="M449.43 315.987C453.363 315.987 456.552 312.806 456.552 308.882C456.552 304.958 453.363 301.777 449.43 301.777C445.496 301.777 442.308 304.958 442.308 308.882C442.308 312.806 445.496 315.987 449.43 315.987Z" fill="white"/>
</g>
<defs>
<clipPath id="clip0_263_1318">
<rect width="836" height="574" fill="white"/>
</clipPath>
</defs>
</svg>
