<svg width="661" height="646" viewBox="0 0 661 646" fill="none" xmlns="http://www.w3.org/2000/svg">
<g clip-path="url(#clip0_181_1311)">
<path d="M473.871 646C577.219 646 661 638.199 661 628.575C661 618.951 577.219 611.15 473.871 611.15C370.522 611.15 286.741 618.951 286.741 628.575C286.741 638.199 370.522 646 473.871 646Z" fill="white"/>
<path opacity="0.1" d="M473.871 646C577.219 646 661 638.199 661 628.575C661 618.951 577.219 611.15 473.871 611.15C370.522 611.15 286.741 618.951 286.741 628.575C286.741 638.199 370.522 646 473.871 646Z" fill="#292A2E"/>
<path d="M163.227 369.45H103.579V386.965H163.227V369.45Z" fill="#F4F4F4"/>
<path opacity="0.05" d="M119.405 369.45H111.589V386.965H119.405V369.45Z" fill="#292A2E"/>
<path d="M155.606 373.257H123.107V383.636H155.606V373.257Z" fill="white"/>
<path d="M210.805 371.736L155.382 347.307L148.435 363.357L203.859 387.786L210.805 371.736Z" fill="#F4F4F4"/>
<path opacity="0.05" d="M210.805 371.736L155.382 347.307L148.435 363.357L203.859 387.786L210.805 371.736Z" fill="#292A2E"/>
<path d="M203.362 368.455L196.1 365.254L189.153 381.304L196.416 384.505L203.362 368.455Z" fill="white"/>
<path d="M191.149 367.226L160.954 353.917L156.837 363.428L187.033 376.737L191.149 367.226Z" fill="white"/>
<path opacity="0.05" d="M210.909 591.321H195.919V601.423H210.909V591.321Z" fill="#292A2E"/>
<path opacity="0.05" d="M57.6552 591.321H42.6655V601.423H57.6552V591.321Z" fill="#292A2E"/>
<path d="M224.65 387.786H28.9258V590.979H224.65V387.786Z" fill="#F4F4F4"/>
<path opacity="0.03" d="M224.65 387.786H28.9258V590.979H224.65V387.786Z" fill="#292A2E"/>
<path d="M260.92 387.786H65.1963V590.979H260.92V387.786Z" fill="#F4F4F4"/>
<path opacity="0.05" d="M247.18 591.321H232.19V601.423H247.18V591.321Z" fill="#292A2E"/>
<path opacity="0.05" d="M93.9267 591.321H78.937V601.423H93.9267V591.321Z" fill="#292A2E"/>
<path opacity="0.7" d="M253.574 397.303H72.5439V436.341H253.574V397.303Z" fill="white"/>
<path opacity="0.7" d="M253.574 445.895H72.5439V484.933H253.574V445.895Z" fill="white"/>
<path opacity="0.7" d="M253.574 494.487H72.5439V533.525H253.574V494.487Z" fill="white"/>
<path opacity="0.05" d="M163.059 422.284C166.048 422.284 168.472 419.838 168.472 416.822C168.472 413.805 166.048 411.36 163.059 411.36C160.07 411.36 157.646 413.805 157.646 416.822C157.646 419.838 160.07 422.284 163.059 422.284Z" fill="#292A2E"/>
<path opacity="0.05" d="M163.059 470.876C166.048 470.876 168.472 468.43 168.472 465.414C168.472 462.397 166.048 459.952 163.059 459.952C160.07 459.952 157.646 462.397 157.646 465.414C157.646 468.43 160.07 470.876 163.059 470.876Z" fill="#292A2E"/>
<path opacity="0.05" d="M163.059 519.469C166.048 519.469 168.472 517.023 168.472 514.007C168.472 510.99 166.048 508.545 163.059 508.545C160.07 508.545 157.646 510.99 157.646 514.007C157.646 517.023 160.07 519.469 163.059 519.469Z" fill="#292A2E"/>
<path opacity="0.7" d="M253.574 544.175H72.5439V583.212H253.574V544.175Z" fill="white"/>
<path opacity="0.05" d="M163.059 569.156C166.048 569.156 168.472 566.71 168.472 563.694C168.472 560.677 166.048 558.231 163.059 558.231C160.07 558.231 157.646 560.677 157.646 563.694C157.646 566.71 160.07 569.156 163.059 569.156Z" fill="#292A2E"/>
<path d="M98.4043 186.108L214.137 186.108L214.137 34.0903L98.4043 34.0903L98.4043 186.108Z" fill="#F4F4F4"/>
<path d="M98.4049 34.0903H94.6504V186.108H98.4049V34.0903Z" fill="#F4F4F4"/>
<path opacity="0.05" d="M98.4049 34.0903H94.6504V186.108H98.4049V34.0903Z" fill="#292A2E"/>
<path opacity="0.05" d="M119.487 158.416H193.055V61.7818L119.487 61.7818L119.487 158.416Z" fill="#292A2E"/>
<path opacity="0.03" d="M119.487 158.416H123.321L123.321 61.7818H119.487L119.487 158.416Z" fill="#292A2E"/>
<path d="M3.7539 319.885H98.4043L98.4043 223.491H3.7539L3.7539 319.885Z" fill="#F4F4F4"/>
<path opacity="0.05" d="M20.9955 302.326H81.1621L81.1621 241.051H20.9955L20.9955 302.326Z" fill="#292A2E"/>
<path d="M3.75447 223.492H0V319.886H3.75447V223.492Z" fill="#F4F4F4"/>
<path opacity="0.05" d="M3.75447 223.492H0V319.886H3.75447V223.492Z" fill="#292A2E"/>
<path opacity="0.03" d="M20.9957 302.326H24.8296L24.8296 241.051H20.9957L20.9957 302.326Z" fill="#292A2E"/>
<path d="M580.919 33.7283H339.403V277.453H580.919V33.7283Z" fill="#F4F4F4"/>
<path d="M339.403 33.7283H336.635V277.453H339.403V33.7283Z" fill="#F4F4F4"/>
<path opacity="0.05" d="M339.403 33.7283H336.635V277.453H339.403V33.7283Z" fill="#292A2E"/>
<path opacity="0.05" d="M397.911 201.675V137.908H449.672V174.955H529.849V240.551H563.926V277.453H529.849H523.284H351.021V201.675H397.911Z" fill="#292A2E"/>
<path opacity="0.34" d="M443.027 144.831H405.335V151.755H443.027V144.831Z" fill="#FFFFFA"/>
<path opacity="0.34" d="M443.027 159.179H405.335V166.102H443.027V159.179Z" fill="#FFFFFA"/>
<path opacity="0.34" d="M443.027 173.526H405.335V180.45H443.027V173.526Z" fill="#FFFFFA"/>
<path opacity="0.34" d="M364.652 208.395H357.705V215.318H364.652V208.395Z" fill="#FFFFFA"/>
<path opacity="0.34" d="M364.652 222.742H357.705V229.666H364.652V222.742Z" fill="#FFFFFA"/>
<path opacity="0.34" d="M364.652 237.089H357.705V244.013H364.652V237.089Z" fill="#FFFFFA"/>
<path opacity="0.34" d="M377.505 208.395H370.557V215.318H377.505V208.395Z" fill="#FFFFFA"/>
<path opacity="0.34" d="M377.505 222.742H370.557V229.666H377.505V222.742Z" fill="#FFFFFA"/>
<path opacity="0.34" d="M377.505 237.089H370.557V244.013H377.505V237.089Z" fill="#FFFFFA"/>
<path opacity="0.34" d="M390.01 208.395H383.062V215.318H390.01V208.395Z" fill="#FFFFFA"/>
<path opacity="0.34" d="M390.01 222.742H383.062V229.666H390.01V222.742Z" fill="#FFFFFA"/>
<path opacity="0.34" d="M390.01 237.089H383.062V244.013H390.01V237.089Z" fill="#FFFFFA"/>
<path d="M339.403 154.223H387.999V33.7275H392.019V154.223H523.284V33.7275H527.303V154.223H580.919V158.279H527.303V277.453H523.284V158.279H392.019V277.453H387.999V158.279H339.403V154.223Z" fill="white"/>
<path d="M590.539 277.159H329.781V285.264H590.539V277.159Z" fill="#F4F4F4"/>
<path opacity="0.1" d="M590.539 277.159H329.781V285.264H590.539V277.159Z" fill="#292A2E"/>
<path opacity="0.1" d="M329.781 277.159H326.017V285.264H329.781V277.159Z" fill="#292A2E"/>
<path opacity="0.1" d="M329.781 277.159H326.017V285.264H329.781V277.159Z" fill="#292A2E"/>
<path d="M539.504 318.912C502.53 318.912 472.556 329.092 472.556 341.649V368.717H606.453V341.649C606.453 329.092 576.479 318.912 539.504 318.912Z" fill="#367CFF"/>
<path opacity="0.49" d="M539.504 318.912C502.53 318.912 472.556 329.092 472.556 341.649V368.717H606.453V341.649C606.453 329.092 576.479 318.912 539.504 318.912Z" fill="white"/>
<path opacity="0.49" d="M588.215 341.652V368.715H472.554V341.652C472.554 330.142 497.727 320.632 530.384 319.129C563.045 320.632 588.215 330.142 588.215 341.652Z" fill="white"/>
<path d="M606.453 631.726H608.7L606.453 366.316L604.225 368.583L605.814 553.98L526.497 555.34L524.896 368.564L522.669 368.583L524.27 555.378L476.389 556.199L474.781 368.564L472.554 366.335L474.801 631.726L477.009 631.707L476.408 558.448L524.288 557.627L524.896 631.726L527.124 631.707L526.516 557.589L605.833 556.228L606.453 631.726Z" fill="#292A2E"/>
<path d="M404.511 591.99C404.511 591.99 400.53 612.817 381.206 613.978C361.882 615.139 366.072 630.674 366.072 630.674H439.918V593.442L404.511 591.99Z" fill="#367CFF"/>
<path d="M446.643 529.346C446.643 529.346 452.181 549.808 435.349 559.457C418.518 569.107 429.073 581.18 429.073 581.18L495.334 548.283L479.049 514.875L446.643 529.346Z" fill="#367CFF"/>
<path d="M439.633 542.87L389.705 352.763C385.918 331.761 391.619 322.658 400.404 313.814C415.84 298.278 479.799 265.209 479.799 265.209L556.529 264.998C576.876 264.998 596.876 285.244 596.876 305.775C596.876 326.306 576.193 343.719 555.847 343.719L461.36 353.236L486.973 527.304L439.633 542.87Z" fill="#262626"/>
<path d="M486.972 527.302L476.888 458.774L425.805 490.22L439.632 542.87L486.972 527.302Z" fill="#0C0C0C"/>
<path d="M498.55 303.68C498.55 303.68 466.295 310.934 434.349 343.171C414.981 362.717 416.569 398.088 419.475 466.118L451.203 418.826L486.003 355.487L498.55 303.68Z" fill="#0C0C0C"/>
<path d="M610.233 264.977L558.123 264.729L558.104 265.421H542.325C542.325 265.421 502.799 302.123 470.979 325.25C447.833 342.072 433.713 358.11 432.492 375.59C429.513 418.2 395.92 599.926 395.92 599.926L446.477 607.651L490.843 390.475C490.843 390.475 560.215 358.199 576.261 346.969C591.371 336.393 602.044 332.305 607.045 320.763C615.68 300.829 610.233 264.977 610.233 264.977Z" fill="#262626"/>
<path d="M551.772 278.222L467.237 279.352L514.658 307.933L554.115 287.371C555.066 286.856 555.818 286.034 556.25 285.036C556.683 284.038 556.771 282.923 556.501 281.869C556.231 280.815 555.619 279.882 554.761 279.221C553.904 278.56 552.851 278.208 551.772 278.222Z" fill="#292A2E"/>
<path opacity="0.2" d="M551.772 278.222L467.237 279.352L514.658 307.933L554.115 287.371C555.066 286.856 555.818 286.034 556.25 285.036C556.683 284.038 556.771 282.923 556.501 281.869C556.231 280.815 555.619 279.882 554.761 279.221C553.904 278.56 552.851 278.208 551.772 278.222Z" fill="white"/>
<path d="M467.721 125.178L443.81 203.361L395.918 266.639L423.895 299.048L480.872 234.873C483.497 232.779 485.55 230.046 486.838 226.929L487.726 224.761L520.637 144.404L467.721 125.178Z" fill="#367CFF"/>
<path d="M504.555 42.1895C504.555 42.1895 494.92 34.8457 492.534 17.9549C490.685 4.87612 502.64 13.3492 502.64 13.3492C502.64 13.3492 501.4 3.91843 508.209 4.85439C515.019 5.79035 518.828 15.697 518.828 15.697" fill="#0C0C0C"/>
<path d="M543.4 5.95825C543.4 5.95825 577.183 9.61292 564.971 55.8101L561.982 56.0124L555.914 56.423" fill="#0C0C0C"/>
<path d="M510.214 104.056C510.362 104.036 512.011 131.633 543.778 129.229C565.774 127.567 573.617 104.017 574.12 104.017C571.749 103.508 568.818 102.736 567.654 102.472C565.115 101.877 562.816 100.517 561.063 98.5715C559.309 96.6262 558.184 94.1882 557.837 91.5818C557.194 87.6701 558.282 67.6559 557.949 63.6978L524.19 71.3024C524.662 79.6623 527.964 99.0418 516.393 102.472C514.466 103.038 512.391 103.563 510.214 104.056Z" fill="#E98862"/>
<path opacity="0.52" d="M523.717 94.5516C524.246 92.8315 524.586 91.0581 524.733 89.2633C525.103 85.1675 525.029 81.0432 524.51 76.9639C531.372 76.0307 537.838 73.1735 543.172 68.717C543.799 71.0536 547.247 81.263 546.29 83.4796C544.487 87.6761 536.008 94.5516 523.717 94.5516Z" fill="#0C0C0C"/>
<path d="M530.685 89.0895C544.005 87.8838 559.947 79.3912 560.177 61.1448L560.385 44.6811C560.615 26.4355 551.304 11.5222 534.281 11.3034C517.257 11.0854 504.346 25.7131 504.116 43.9595L504.024 51.2478C504.036 53.751 504.217 56.2504 504.565 58.7288C505.438 65.2858 506.793 75.2546 511.202 81.9982C515.366 88.3649 522.175 89.8591 530.685 89.0895Z" fill="#E98862"/>
<path opacity="0.52" d="M524.506 72.4114C521.757 72.5371 519.017 72.0091 516.507 70.87C516.405 70.8232 516.325 70.7379 516.284 70.6322C516.243 70.5265 516.245 70.4088 516.289 70.3045C516.333 70.2001 516.416 70.1173 516.52 70.0738C516.623 70.0304 516.74 70.0297 516.844 70.0719C522.251 72.3987 527.16 72.0585 531.041 69.0872C531.119 69.0247 531.2 68.9665 531.285 68.9126C531.382 68.8663 531.493 68.8587 531.596 68.8913C531.699 68.9239 531.786 68.9943 531.84 69.0887C531.894 69.183 531.911 69.2943 531.887 69.4005C531.863 69.5067 531.801 69.6 531.712 69.662C531.681 69.6815 531.631 69.7212 531.564 69.7751C529.524 71.3435 527.066 72.2614 524.506 72.4114Z" fill="#0C0C0C"/>
<path opacity="0.52" d="M524.631 76.5217C524.134 76.5526 523.636 76.5406 523.141 76.4858C523.085 76.4798 523.031 76.4627 522.981 76.4355C522.932 76.4083 522.888 76.3715 522.853 76.3272C522.817 76.283 522.791 76.2321 522.775 76.1775C522.759 76.123 522.754 76.0658 522.76 76.0092C522.766 75.9526 522.783 75.8977 522.81 75.8478C522.837 75.7978 522.873 75.7536 522.917 75.7179C522.961 75.6821 523.011 75.6554 523.065 75.6393C523.119 75.6232 523.176 75.618 523.232 75.624C526.207 75.9425 527.627 74.5674 527.687 74.5082C527.768 74.4268 527.877 74.381 527.991 74.3809C528.105 74.3807 528.214 74.4263 528.295 74.5074C528.376 74.5886 528.421 74.6988 528.421 74.8138C528.421 74.9287 528.376 75.039 528.296 75.1204C527.271 76.0007 525.976 76.4959 524.631 76.5217Z" fill="#0C0C0C"/>
<path d="M509.738 54.7564C510.896 54.7564 511.835 53.8089 511.835 52.6401C511.835 51.4714 510.896 50.5239 509.738 50.5239C508.579 50.5239 507.641 51.4714 507.641 52.6401C507.641 53.8089 508.579 54.7564 509.738 54.7564Z" fill="#0C0C0C"/>
<path d="M530.225 53.4592C531.383 53.4592 532.322 52.5118 532.322 51.343C532.322 50.1743 531.383 49.2268 530.225 49.2268C529.066 49.2268 528.127 50.1743 528.127 51.343C528.127 52.5118 529.066 53.4592 530.225 53.4592Z" fill="#0C0C0C"/>
<path d="M559.05 66.6939C564.224 66.7606 568.488 61.2288 568.555 56.0079C568.623 50.7871 564.463 47.854 559.289 47.7881L556.58 51.2517L554.604 66.637L559.05 66.6939Z" fill="#E98862"/>
<path d="M553.903 58.3008C553.903 58.3008 552.156 32.4828 544.398 30.8881C539.231 29.8263 526.701 37.2226 515.096 34.9887C510.019 34.0145 505.199 35.2794 504.708 37.6999C504.514 38.6584 501.351 24.8857 509.302 14.4365C515.632 6.11848 536.348 3.76546 545.773 6.49317C571.87 14.0483 560.354 48.9202 560.354 48.9202L559.191 57.8212L553.903 58.3008Z" fill="#0C0C0C"/>
<g opacity="0.52">
<path d="M521.378 66.3192C521.367 66.3199 521.356 66.3199 521.345 66.3192C519.678 66.3027 516.883 66.0861 516.894 64.828C516.906 63.7848 519.847 52.557 520.182 51.2801C520.211 51.1702 520.282 51.0764 520.379 51.0192C520.477 50.9621 520.593 50.9464 520.702 50.9755C520.811 51.0046 520.904 51.0762 520.96 51.1745C521.017 51.2728 521.032 51.3898 521.003 51.4997C519.697 56.4725 517.751 64.128 517.744 64.8384C517.905 65.1382 519.627 65.4469 521.353 65.4649C521.461 65.4673 521.565 65.5117 521.643 65.5891C521.72 65.6665 521.765 65.7709 521.768 65.8807C521.771 65.9905 521.733 66.0974 521.66 66.1793C521.587 66.2612 521.486 66.3118 521.378 66.3207V66.3192Z" fill="#0C0C0C"/>
</g>
<path d="M515.69 41.1658C513.938 40.6791 512.088 40.6791 510.336 41.1658C509.475 41.3994 508.654 41.7621 507.901 42.2419C507.155 42.7117 506.472 43.2747 505.866 43.9175C505.754 44.032 505.691 44.1855 505.689 44.3461C505.686 44.5068 505.745 44.6621 505.854 44.7799C505.962 44.8976 506.111 44.9687 506.27 44.9784C506.429 44.988 506.585 44.9355 506.707 44.8317L506.745 44.7987C507.305 44.2747 507.929 43.8243 508.601 43.4581C509.26 43.0936 509.971 42.8318 510.708 42.6818C512.159 42.3748 513.664 42.4598 515.072 42.9283L515.131 42.9493C515.361 43.0242 515.611 43.0055 515.828 42.8972C516.045 42.7888 516.212 42.5993 516.292 42.3689C516.373 42.1386 516.361 41.8856 516.26 41.6637C516.159 41.4418 515.976 41.2686 515.75 41.1808L515.69 41.1658Z" fill="#0C0C0C"/>
<path d="M528.097 42.2277C529.43 41.574 530.911 41.2873 532.389 41.3967C533.14 41.4458 533.878 41.6095 534.579 41.8823C535.293 42.1555 535.97 42.518 536.594 42.9614L536.634 42.9883C536.768 43.0755 536.93 43.107 537.087 43.0764C537.243 43.0458 537.382 42.9554 537.474 42.824C537.566 42.6926 537.604 42.5305 537.581 42.3713C537.557 42.2122 537.474 42.0684 537.348 41.9699C536.663 41.4143 535.911 40.9483 535.11 40.5829C534.3 40.2088 533.438 39.9597 532.554 39.844C530.754 39.5964 528.92 39.8441 527.248 40.5611C527.136 40.6103 527.034 40.6813 526.949 40.7701C526.864 40.8589 526.798 40.9637 526.753 41.0785C526.708 41.1933 526.686 41.3159 526.688 41.4393C526.69 41.5627 526.716 41.6844 526.765 41.7976C526.864 42.0261 527.048 42.2059 527.278 42.2972C527.392 42.3424 527.513 42.3646 527.635 42.3625C527.758 42.3603 527.878 42.3339 527.99 42.2847L528.042 42.2599L528.097 42.2277Z" fill="#0C0C0C"/>
<path d="M527.247 14.5543C528.424 8.8664 526.275 3.60094 522.445 2.79355C518.616 1.98616 514.557 5.94259 513.379 11.6304C512.202 17.3183 514.351 22.5837 518.181 23.3911C522.01 24.1985 526.069 20.2421 527.247 14.5543Z" fill="#0C0C0C"/>
<path d="M470.739 164.711C471.74 176.575 478.833 250.597 479.798 265.211H610.176C610.925 252.03 614.288 194.395 617.129 168.617C619.841 144.021 623.641 132.829 620.518 125.186C615.01 111.705 597.476 105.685 585.603 104.063C578.352 103.072 567.448 102.362 567.448 102.362C567.448 102.362 566.525 121.211 544.509 122.26C514.538 123.684 516.54 102.362 516.392 102.362C511.536 102.362 485.108 105.926 478.5 110.272C469.166 116.411 466.407 124.777 466.298 132.464C466.173 141.316 469.606 151.253 470.739 164.711Z" fill="#367CFF"/>
<path d="M477.35 236.041C477.257 236.041 477.168 236.006 477.099 235.943C477.03 235.88 476.987 235.793 476.979 235.699L472.04 178.687C472.031 178.588 472.062 178.49 472.125 178.414C472.188 178.337 472.279 178.29 472.377 178.281C472.425 178.276 472.475 178.281 472.521 178.295C472.568 178.31 472.612 178.334 472.649 178.366C472.687 178.397 472.718 178.436 472.74 178.48C472.762 178.524 472.776 178.573 472.779 178.622L477.719 235.634C477.727 235.733 477.696 235.831 477.633 235.907C477.57 235.983 477.48 236.031 477.382 236.039C477.371 236.041 477.361 236.041 477.35 236.041Z" fill="#0C0C0C"/>
<path d="M486.804 269.157L504.706 254.5L501.693 255.36C500.715 255.617 499.677 255.491 498.788 255.006C497.899 254.52 497.225 253.713 496.904 252.746C496.755 252.241 496.71 251.711 496.771 251.188C496.832 250.664 496.998 250.159 497.258 249.703C497.519 249.247 497.869 248.849 498.287 248.534C498.706 248.218 499.183 247.993 499.691 247.87L537.299 238.639L540.535 250.728C541.541 254.482 541.412 258.454 540.166 262.134C538.92 265.815 536.613 269.035 533.542 271.384L519.607 281.997C518.893 282.561 518.008 282.86 517.102 282.843C516.195 282.825 515.323 282.493 514.631 281.901C514.017 281.352 513.594 280.62 513.422 279.811C513.25 279.002 513.339 278.159 513.676 277.405C513.615 277.387 513.561 277.352 513.518 277.306C513.481 277.26 513.455 277.206 513.443 277.148C513.431 277.09 513.434 277.03 513.451 276.974L510.883 278.936C510.09 279.568 509.089 279.872 508.082 279.788C507.074 279.704 506.136 279.236 505.457 278.481C504.874 277.784 504.553 276.902 504.55 275.99C504.548 275.078 504.864 274.194 505.443 273.494C505.403 273.488 505.364 273.475 505.328 273.455L504.274 274.261C503.56 274.826 502.676 275.125 501.769 275.107C500.863 275.09 499.99 274.757 499.298 274.165C498.554 273.5 498.094 272.569 498.014 271.569C497.935 270.569 498.242 269.577 498.872 268.8C498.857 268.779 498.845 268.755 498.835 268.731L491.38 274.834C491.01 275.137 490.585 275.363 490.129 275.5C489.673 275.636 489.194 275.681 488.721 275.631C488.248 275.582 487.789 275.438 487.37 275.21C486.952 274.981 486.582 274.671 486.282 274.298C485.982 273.925 485.758 273.496 485.623 273.036C485.487 272.575 485.443 272.093 485.492 271.615C485.542 271.137 485.684 270.674 485.91 270.252C486.137 269.83 486.444 269.457 486.814 269.154L486.804 269.157Z" fill="#E98862"/>
<path opacity="0.2" d="M499.281 268.949C499.32 268.935 499.357 268.914 499.389 268.887L506.562 262.873C506.599 262.842 506.629 262.805 506.651 262.762C506.673 262.72 506.686 262.674 506.691 262.626C506.695 262.578 506.69 262.53 506.676 262.485C506.662 262.439 506.639 262.397 506.609 262.36C506.578 262.323 506.541 262.293 506.499 262.271C506.457 262.248 506.411 262.235 506.364 262.23C506.317 262.226 506.269 262.231 506.224 262.245C506.179 262.259 506.137 262.282 506.1 262.313L498.928 268.326C498.863 268.381 498.819 268.457 498.804 268.541C498.789 268.625 498.803 268.712 498.845 268.787C498.888 268.861 498.954 268.918 499.034 268.948C499.113 268.977 499.201 268.978 499.281 268.949Z" fill="#0A0A0A"/>
<path opacity="0.2" d="M505.602 273.49C505.641 273.477 505.677 273.456 505.708 273.43L511.382 268.748C511.457 268.687 511.504 268.598 511.513 268.502C511.523 268.406 511.494 268.31 511.434 268.235C511.373 268.16 511.286 268.113 511.19 268.103C511.095 268.093 511 268.122 510.926 268.183L505.252 272.866C505.186 272.92 505.141 272.996 505.125 273.081C505.109 273.165 505.123 273.252 505.165 273.327C505.207 273.402 505.274 273.46 505.354 273.49C505.434 273.519 505.522 273.52 505.602 273.49Z" fill="#0A0A0A"/>
<path opacity="0.2" d="M513.907 277.417C513.949 277.401 513.987 277.379 514.021 277.35L516.649 275.075C516.685 275.044 516.714 275.006 516.736 274.964C516.757 274.921 516.77 274.875 516.774 274.827C516.777 274.78 516.772 274.732 516.757 274.686C516.742 274.641 516.719 274.599 516.688 274.563C516.657 274.526 516.62 274.496 516.577 274.475C516.535 274.453 516.489 274.44 516.442 274.437C516.395 274.433 516.347 274.439 516.302 274.454C516.257 274.468 516.216 274.492 516.18 274.523L513.551 276.798C513.487 276.853 513.445 276.929 513.431 277.013C513.417 277.097 513.432 277.183 513.475 277.256C513.517 277.33 513.583 277.386 513.662 277.415C513.741 277.444 513.828 277.445 513.907 277.417Z" fill="#0A0A0A"/>
<path d="M645.026 233.257L644.889 232.642L621.092 126.425L574.012 137.165L592.586 220.074L518.182 238.524L527.338 280.892L626.492 261.807C626.715 261.763 627.045 261.696 627.271 261.644C630.284 260.956 633.133 259.677 635.656 257.878C638.179 256.08 640.326 253.797 641.975 251.161C643.623 248.525 644.742 245.588 645.265 242.516C645.789 239.443 645.708 236.297 645.026 233.257Z" fill="#367CFF"/>
<path d="M517.818 238.604C517.798 238.509 517.816 238.41 517.867 238.328C517.918 238.246 517.999 238.187 518.093 238.164L592.166 219.804L580.122 166.122C580.109 166.074 580.105 166.022 580.112 165.972C580.119 165.922 580.135 165.873 580.161 165.83C580.187 165.786 580.221 165.748 580.262 165.718C580.302 165.688 580.349 165.667 580.398 165.656C580.447 165.645 580.498 165.644 580.547 165.653C580.597 165.662 580.644 165.681 580.686 165.709C580.728 165.738 580.763 165.774 580.791 165.817C580.818 165.859 580.837 165.907 580.846 165.957L592.97 219.998C592.993 220.094 592.977 220.195 592.926 220.279C592.874 220.363 592.792 220.424 592.697 220.447L518.618 238.807C518.618 238.807 519.114 240.992 519.255 241.729C519.266 241.825 519.239 241.922 519.179 241.998C519.12 242.073 519.033 242.122 518.938 242.133C518.843 242.144 518.747 242.117 518.672 242.057C518.597 241.997 518.549 241.909 518.537 241.813C518.367 241.005 517.818 238.604 517.818 238.604Z" fill="#0C0C0C"/>
<path d="M520.721 297.767L492.113 209.025C491.611 207.465 490.632 206.106 489.317 205.142C488.002 204.179 486.419 203.66 484.794 203.66H368.244C367.029 203.66 365.831 203.95 364.749 204.507C363.667 205.063 362.73 205.871 362.016 206.863C361.302 207.855 360.831 209.003 360.641 210.214C360.452 211.425 360.549 212.664 360.925 213.83L389.533 302.573C390.036 304.132 391.015 305.491 392.33 306.455C393.644 307.419 395.228 307.938 396.853 307.938H513.402C514.617 307.938 515.814 307.647 516.897 307.091C517.979 306.534 518.915 305.726 519.629 304.735C520.343 303.743 520.814 302.594 521.004 301.383C521.194 300.172 521.097 298.933 520.721 297.767Z" fill="#292A2E"/>
<path opacity="0.2" d="M520.721 297.767L492.113 209.025C491.611 207.465 490.632 206.106 489.317 205.142C488.002 204.179 486.419 203.66 484.794 203.66H368.244C367.029 203.66 365.831 203.95 364.749 204.507C363.667 205.063 362.73 205.871 362.016 206.863C361.302 207.855 360.831 209.003 360.641 210.214C360.452 211.425 360.549 212.664 360.925 213.83L389.533 302.573C390.036 304.132 391.015 305.491 392.33 306.455C393.644 307.419 395.228 307.938 396.853 307.938H513.402C514.617 307.938 515.814 307.647 516.897 307.091C517.979 306.534 518.915 305.726 519.629 304.735C520.343 303.743 520.814 302.594 521.004 301.383C521.194 300.172 521.097 298.933 520.721 297.767Z" fill="white"/>
<path d="M437.466 268.134C444.217 268.134 449.689 262.611 449.689 255.799C449.689 248.986 444.217 243.463 437.466 243.463C430.715 243.463 425.242 248.986 425.242 255.799C425.242 262.611 430.715 268.134 437.466 268.134Z" fill="white"/>
<path d="M322.395 9.37769H91.0723C80.3556 9.37769 71.668 18.1447 71.668 28.9595V312.349C71.668 323.163 80.3556 331.93 91.0723 331.93H322.395C333.111 331.93 341.799 323.163 341.799 312.349V28.9595C341.799 18.1447 333.111 9.37769 322.395 9.37769Z" fill="#292A2E"/>
<path d="M330.945 0.749268H99.6221C88.9054 0.749268 80.2178 9.51633 80.2178 20.331V303.72C80.2178 314.535 88.9054 323.302 99.6221 323.302H330.945C341.661 323.302 350.349 314.535 350.349 303.72V20.331C350.349 9.51633 341.661 0.749268 330.945 0.749268Z" fill="white"/>
<path d="M330.944 324.051H99.622C94.2804 324.045 89.1592 321.901 85.3822 318.09C81.6052 314.278 79.4808 309.11 79.4751 303.719V20.3311C79.481 14.9408 81.6055 9.77297 85.3825 5.96143C89.1595 2.14989 94.2805 0.00595047 99.622 0L330.944 0C336.286 0.00614878 341.407 2.15017 345.183 5.96169C348.96 9.77321 351.085 14.9409 351.091 20.3311V303.719C351.085 309.11 348.961 314.278 345.184 318.089C341.407 321.901 336.286 324.045 330.944 324.051ZM99.622 1.49874C94.6743 1.50429 89.9308 3.4902 86.4322 7.02076C82.9337 10.5513 80.9658 15.3382 80.9603 20.3311V303.719C80.9658 308.712 82.9337 313.499 86.4322 317.03C89.9308 320.56 94.6743 322.546 99.622 322.552H330.944C335.892 322.546 340.635 320.56 344.134 317.03C347.632 313.499 349.6 308.712 349.605 303.719V20.3311C349.6 15.3383 347.632 10.5514 344.134 7.0208C340.635 3.49022 335.892 1.50429 330.944 1.49874H99.622Z" fill="#292A2E"/>
<path d="M77.102 363.852C103.709 363.852 125.278 342.085 125.278 315.235C125.278 288.385 103.709 266.618 77.102 266.618C50.495 266.618 28.9258 288.385 28.9258 315.235C28.9258 342.085 50.495 363.852 77.102 363.852Z" fill="#292A2E"/>
<path d="M67.1008 308.89C66.4666 308.89 65.8583 308.636 65.4098 308.184C64.9613 307.731 64.7092 307.117 64.709 306.477V294.794C64.709 288.333 70.2687 283.077 77.1019 283.077C83.9351 283.077 89.4947 288.333 89.4947 294.794V305.675C89.5003 305.996 89.4426 306.314 89.3249 306.612C89.2073 306.91 89.032 307.181 88.8094 307.41C88.5868 307.638 88.3212 307.82 88.0283 307.944C87.7354 308.068 87.4209 308.132 87.1033 308.132C86.7856 308.132 86.4711 308.068 86.1782 307.944C85.8853 307.82 85.6198 307.638 85.3971 307.41C85.1745 307.181 84.9993 306.91 84.8816 306.612C84.7639 306.314 84.7062 305.996 84.7118 305.675V294.794C84.7118 290.995 81.2959 287.903 77.1019 287.903C72.9078 287.903 69.4919 290.995 69.4919 294.794V306.479C69.4915 307.118 69.2394 307.732 68.7911 308.184C68.3427 308.636 67.7347 308.89 67.1008 308.89Z" fill="white"/>
<path d="M92.3591 304.458H61.8451C60.0656 304.458 58.623 305.914 58.623 307.709V336.714C58.623 338.51 60.0656 339.966 61.8451 339.966H92.3591C94.1386 339.966 95.5811 338.51 95.5811 336.714V307.709C95.5811 305.914 94.1386 304.458 92.3591 304.458Z" fill="white"/>
<path d="M74.0643 319.34C74.064 319.915 74.224 320.479 74.526 320.967C74.828 321.455 75.2598 321.847 75.7722 322.099V326.81C75.7722 327.165 75.9119 327.505 76.1606 327.756C76.4094 328.007 76.7467 328.148 77.0984 328.148C77.4502 328.148 77.7875 328.007 78.0362 327.756C78.2849 327.505 78.4247 327.165 78.4247 326.81V322.099C78.9127 321.86 79.3284 321.494 79.6287 321.038C79.9289 320.582 80.1026 320.053 80.1319 319.507C80.1611 318.96 80.0448 318.415 79.795 317.93C79.5452 317.444 79.171 317.034 78.7113 316.743C78.2516 316.453 77.7232 316.292 77.1809 316.277C76.6386 316.262 76.1023 316.394 75.6277 316.659C75.153 316.924 74.7573 317.312 74.4818 317.784C74.2062 318.255 74.0607 318.793 74.0605 319.34H74.0643Z" fill="#292A2E"/>
<path d="M310.744 161.694H119.823C115.265 161.694 111.57 165.422 111.57 170.021V197.032C111.57 201.631 115.265 205.359 119.823 205.359H310.744C315.302 205.359 318.997 201.631 318.997 197.032V170.021C318.997 165.422 315.302 161.694 310.744 161.694Z" fill="white"/>
<path d="M310.744 206.108H119.822C117.438 206.105 115.151 205.148 113.465 203.446C111.779 201.745 110.83 199.438 110.828 197.031V170.021C110.83 167.615 111.779 165.308 113.465 163.606C115.151 161.904 117.438 160.947 119.822 160.944H310.744C313.128 160.946 315.415 161.904 317.101 163.606C318.788 165.307 319.736 167.615 319.739 170.021V197.031C319.736 199.438 318.788 201.745 317.101 203.447C315.415 205.148 313.128 206.106 310.744 206.108ZM119.822 162.442C117.831 162.445 115.922 163.244 114.514 164.665C113.107 166.086 112.315 168.012 112.313 170.021V197.031C112.315 199.04 113.107 200.967 114.515 202.387C115.923 203.808 117.831 204.607 119.822 204.609H310.744C312.735 204.607 314.644 203.808 316.052 202.387C317.46 200.967 318.252 199.04 318.254 197.031V170.021C318.252 168.012 317.46 166.086 316.052 164.665C314.644 163.244 312.735 162.445 310.744 162.442H119.822Z" fill="#292A2E"/>
<path d="M310.744 224.097H119.823C115.265 224.097 111.57 227.825 111.57 232.424V259.435C111.57 264.034 115.265 267.762 119.823 267.762H310.744C315.302 267.762 318.997 264.034 318.997 259.435V232.424C318.997 227.825 315.302 224.097 310.744 224.097Z" fill="white"/>
<path d="M310.744 268.511H119.822C117.437 268.508 115.151 267.551 113.464 265.849C111.778 264.147 110.83 261.839 110.828 259.432V232.425C110.83 230.018 111.779 227.711 113.465 226.009C115.151 224.307 117.438 223.35 119.822 223.347H310.744C313.128 223.35 315.415 224.307 317.101 226.009C318.788 227.711 319.736 230.018 319.739 232.425V259.432C319.737 261.839 318.789 264.147 317.102 265.849C315.416 267.551 313.129 268.509 310.744 268.511ZM119.822 224.846C117.831 224.848 115.923 225.647 114.515 227.068C113.107 228.489 112.315 230.415 112.313 232.425V259.432C112.315 261.441 113.107 263.367 114.515 264.788C115.923 266.209 117.831 267.008 119.822 267.01H310.744C312.735 267.008 314.644 266.209 316.052 264.788C317.46 263.368 318.252 261.441 318.254 259.432V232.425C318.252 230.415 317.46 228.489 316.052 227.068C314.644 225.647 312.735 224.848 310.744 224.846H119.822Z" fill="#292A2E"/>
<path d="M215.283 129.214C239.764 129.214 259.61 109.186 259.61 84.4809C259.61 59.7756 239.764 39.748 215.283 39.748C190.802 39.748 170.956 59.7756 170.956 84.4809C170.956 109.186 190.802 129.214 215.283 129.214Z" fill="white"/>
<path d="M215.283 129.963C206.369 129.963 197.655 127.296 190.243 122.298C182.832 117.3 177.055 110.197 173.644 101.886C170.232 93.5755 169.34 84.4306 171.079 75.6079C172.818 66.7852 177.11 58.681 183.414 52.3202C189.717 45.9594 197.747 41.6277 206.49 39.8727C215.233 38.1178 224.295 39.0185 232.53 42.4609C240.766 45.9034 247.805 51.7329 252.757 59.2125C257.71 66.692 260.353 75.4855 260.353 84.481C260.34 96.5395 255.587 108.1 247.137 116.627C238.688 125.154 227.232 129.95 215.283 129.963ZM215.283 40.4975C206.663 40.4975 198.236 43.0771 191.068 47.9101C183.901 52.7431 178.315 59.6123 175.016 67.6493C171.717 75.6862 170.854 84.5298 172.536 93.0618C174.217 101.594 178.368 109.431 184.464 115.582C190.559 121.733 198.325 125.922 206.78 127.619C215.235 129.317 223.998 128.446 231.962 125.116C239.926 121.787 246.733 116.15 251.522 108.917C256.312 101.684 258.868 93.1801 258.868 84.481C258.855 72.8199 254.259 61.6401 246.088 53.3945C237.917 45.1488 226.838 40.5106 215.283 40.4975Z" fill="#292A2E"/>
<path opacity="0.5" d="M258.626 84.481C258.639 94.8348 254.998 104.855 248.356 112.746C244.265 107.934 239.191 104.071 233.482 101.423C227.773 98.7748 221.564 97.4044 215.281 97.4055C208.997 97.4067 202.789 98.7793 197.08 101.429C191.372 104.079 186.299 107.944 182.21 112.758C177.7 107.387 174.542 100.996 173.003 94.1282C171.465 87.2608 171.591 80.1201 173.373 73.3128C175.155 66.5055 178.538 60.2328 183.236 55.0277C187.934 49.8225 193.808 45.8387 200.358 43.4147C206.909 40.9908 213.942 40.1983 220.861 41.1047C227.78 42.0111 234.38 44.5895 240.1 48.6208C245.819 52.6522 250.491 58.0174 253.716 64.2605C256.941 70.5037 258.626 77.4403 258.626 84.481Z" fill="#367CFF"/>
<path d="M248.356 112.746C244.288 117.594 239.222 121.49 233.511 124.162C227.8 126.834 221.581 128.219 215.286 128.22C208.991 128.221 202.771 126.839 197.059 124.169C191.347 121.499 186.28 117.605 182.21 112.758C186.3 107.944 191.372 104.079 197.08 101.429C202.789 98.7793 208.997 97.4067 215.281 97.4055C221.564 97.4044 227.773 98.7748 233.482 101.423C239.191 104.071 244.265 107.934 248.356 112.746Z" fill="white"/>
<path d="M215.284 89.2448C224.96 89.2448 232.803 81.3292 232.803 71.5649C232.803 61.8006 224.96 53.885 215.284 53.885C205.608 53.885 197.764 61.8006 197.764 71.5649C197.764 81.3292 205.608 89.2448 215.284 89.2448Z" fill="white"/>
<g opacity="0.4">
<path d="M127.641 251.247C130.551 251.247 132.91 248.867 132.91 245.93C132.91 242.993 130.551 240.612 127.641 240.612C124.731 240.612 122.372 242.993 122.372 245.93C122.372 248.867 124.731 251.247 127.641 251.247Z" fill="#292A2E"/>
<path d="M144.124 251.247C147.034 251.247 149.393 248.867 149.393 245.93C149.393 242.993 147.034 240.612 144.124 240.612C141.214 240.612 138.854 242.993 138.854 245.93C138.854 248.867 141.214 251.247 144.124 251.247Z" fill="#292A2E"/>
<path d="M160.607 251.247C163.517 251.247 165.876 248.867 165.876 245.93C165.876 242.993 163.517 240.612 160.607 240.612C157.697 240.612 155.337 242.993 155.337 245.93C155.337 248.867 157.697 251.247 160.607 251.247Z" fill="#292A2E"/>
<path d="M177.09 251.247C180 251.247 182.359 248.867 182.359 245.93C182.359 242.993 180 240.612 177.09 240.612C174.179 240.612 171.82 242.993 171.82 245.93C171.82 248.867 174.179 251.247 177.09 251.247Z" fill="#292A2E"/>
<path d="M193.572 251.247C196.482 251.247 198.841 248.867 198.841 245.93C198.841 242.993 196.482 240.612 193.572 240.612C190.662 240.612 188.303 242.993 188.303 245.93C188.303 248.867 190.662 251.247 193.572 251.247Z" fill="#292A2E"/>
<path d="M210.055 251.247C212.965 251.247 215.324 248.867 215.324 245.93C215.324 242.993 212.965 240.612 210.055 240.612C207.145 240.612 204.786 242.993 204.786 245.93C204.786 248.867 207.145 251.247 210.055 251.247Z" fill="#292A2E"/>
<path d="M226.538 251.247C229.448 251.247 231.807 248.867 231.807 245.93C231.807 242.993 229.448 240.612 226.538 240.612C223.628 240.612 221.269 242.993 221.269 245.93C221.269 248.867 223.628 251.247 226.538 251.247Z" fill="#292A2E"/>
</g>
<g opacity="0.3">
<path d="M132.867 183.206V185.005H126.1V183.206H132.867Z" fill="black"/>
<path d="M141.277 183.206V185.005H134.51V183.206H141.277Z" fill="black"/>
<path d="M149.686 183.206V185.005H142.919V183.206H149.686Z" fill="black"/>
<path d="M158.095 183.206V185.005H151.328V183.206H158.095Z" fill="black"/>
<path d="M166.505 183.206V185.005H159.737V183.206H166.505Z" fill="black"/>
<path d="M181.681 193.353C180.176 194.134 178.499 194.515 176.808 194.462C172.315 194.462 168.506 191.143 168.506 185.835C168.506 180.14 172.424 175.218 178.506 175.218C183.273 175.218 186.479 178.59 186.479 183.208C186.479 187.356 184.177 189.789 181.602 189.789C180.507 189.789 179.493 189.039 179.575 187.356H179.465C179.111 188.085 178.561 188.699 177.879 189.129C177.196 189.559 176.408 189.787 175.603 189.789C174.014 189.789 172.644 188.489 172.644 186.305C172.641 185.444 172.807 184.59 173.132 183.794C173.458 182.998 173.936 182.274 174.539 181.665C175.143 181.056 175.86 180.573 176.649 180.245C177.439 179.917 178.284 179.749 179.138 179.752C180.145 179.737 181.143 179.935 182.07 180.333L181.138 185.337C180.727 187.435 181.056 188.41 181.96 188.434C183.357 188.461 184.919 186.581 184.919 183.375C184.919 179.366 182.535 176.49 178.289 176.49C173.823 176.49 170.069 180.056 170.069 185.669C170.069 190.287 173.056 193.134 177.111 193.134C178.548 193.168 179.971 192.835 181.248 192.167L181.681 193.353ZM180.175 181.409C179.73 181.277 179.268 181.212 178.805 181.216C176.394 181.216 174.449 183.51 174.449 186.192C174.449 187.409 175.052 188.291 176.257 188.291C177.846 188.291 179.298 186.245 179.598 184.53L180.175 181.409Z" fill="black"/>
<path d="M195.103 183.206V185.005H188.335V183.206H195.103Z" fill="black"/>
<path d="M203.512 183.206V185.005H196.745V183.206H203.512Z" fill="black"/>
<path d="M211.921 183.206V185.005H205.154V183.206H211.921Z" fill="black"/>
</g>
</g>
<defs>
<clipPath id="clip0_181_1311">
<rect width="661" height="646" fill="white"/>
</clipPath>
</defs>
</svg>
