<svg width="667" height="700" viewBox="0 0 667 700" fill="none" xmlns="http://www.w3.org/2000/svg">
<g clip-path="url(#clip0_288_830)">
<path d="M541.045 462.594H378.183C371.552 462.594 366.177 468.219 366.177 475.158V567.585C366.177 574.524 371.552 580.149 378.183 580.149H541.045C547.676 580.149 553.051 574.524 553.051 567.585V475.158C553.051 468.219 547.676 462.594 541.045 462.594Z" fill="white"/>
<path opacity="0.1" d="M541.045 462.594H378.183C371.552 462.594 366.177 468.219 366.177 475.158V567.585C366.177 574.524 371.552 580.149 378.183 580.149H541.045C547.676 580.149 553.051 574.524 553.051 567.585V475.158C553.051 468.219 547.676 462.594 541.045 462.594Z" fill="#367CFF"/>
<path d="M501.576 525.626H487.155C486.277 525.626 485.565 526.371 485.565 527.29V560.74C485.565 561.658 486.277 562.403 487.155 562.403H501.576C502.454 562.403 503.165 561.658 503.165 560.74V527.29C503.165 526.371 502.454 525.626 501.576 525.626Z" fill="white"/>
<path d="M536.327 497.025H521.906C521.028 497.025 520.316 497.769 520.316 498.688V560.74C520.316 561.658 521.028 562.403 521.906 562.403H536.327C537.205 562.403 537.916 561.658 537.916 560.74V498.688C537.916 497.769 537.205 497.025 536.327 497.025Z" fill="white"/>
<path d="M397.321 525.626H382.9C382.022 525.626 381.311 526.371 381.311 527.29V560.74C381.311 561.658 382.022 562.403 382.9 562.403H397.321C398.199 562.403 398.91 561.658 398.91 560.74V527.29C398.91 526.371 398.199 525.626 397.321 525.626Z" fill="white"/>
<path d="M432.073 484.019H417.652C416.774 484.019 416.062 484.764 416.062 485.683V560.739C416.062 561.658 416.774 562.403 417.652 562.403H432.073C432.951 562.403 433.662 561.658 433.662 560.739V485.683C433.662 484.764 432.951 484.019 432.073 484.019Z" fill="white"/>
<path d="M466.824 517.383H452.403C451.525 517.383 450.813 518.128 450.813 519.047V560.74C450.813 561.658 451.525 562.403 452.403 562.403H466.824C467.702 562.403 468.413 561.658 468.413 560.74V519.047C468.413 518.128 467.702 517.383 466.824 517.383Z" fill="white"/>
<path d="M247.932 390.696H41.2303C32.8147 390.696 25.9924 397.836 25.9924 406.643V523.949C25.9924 532.756 32.8147 539.895 41.2303 539.895H247.932C256.348 539.895 263.17 532.756 263.17 523.949V406.643C263.17 397.836 256.348 390.696 247.932 390.696Z" fill="white"/>
<path opacity="0.1" d="M247.932 390.696H41.2303C32.8147 390.696 25.9924 397.836 25.9924 406.643V523.949C25.9924 532.756 32.8147 539.895 41.2303 539.895H247.932C256.348 539.895 263.17 532.756 263.17 523.949V406.643C263.17 397.836 256.348 390.696 247.932 390.696Z" fill="#367CFF"/>
<path d="M197.839 470.696H179.536C178.422 470.696 177.519 471.642 177.519 472.807V515.261C177.519 516.427 178.422 517.372 179.536 517.372H197.839C198.953 517.372 199.856 516.427 199.856 515.261V472.807C199.856 471.642 198.953 470.696 197.839 470.696Z" fill="white"/>
<path d="M241.945 434.396H223.642C222.528 434.396 221.625 435.341 221.625 436.507V515.262C221.625 516.428 222.528 517.373 223.642 517.373H241.945C243.059 517.373 243.962 516.428 243.962 515.262V436.507C243.962 435.341 243.059 434.396 241.945 434.396Z" fill="white"/>
<path d="M65.5201 470.696H47.2173C46.1032 470.696 45.2 471.642 45.2 472.807V515.261C45.2 516.427 46.1032 517.372 47.2173 517.372H65.5201C66.6343 517.372 67.5375 516.427 67.5375 515.261V472.807C67.5375 471.642 66.6343 470.696 65.5201 470.696Z" fill="white"/>
<path d="M109.626 417.89H91.3233C90.2091 417.89 89.3059 418.835 89.3059 420.001V515.261C89.3059 516.427 90.2091 517.372 91.3233 517.372H109.626C110.74 517.372 111.643 516.427 111.643 515.261V420.001C111.643 418.835 110.74 417.89 109.626 417.89Z" fill="white"/>
<path d="M153.733 460.234H135.43C134.316 460.234 133.413 461.179 133.413 462.345V515.261C133.413 516.427 134.316 517.372 135.43 517.372H153.733C154.847 517.372 155.75 516.427 155.75 515.261V462.345C155.75 461.179 154.847 460.234 153.733 460.234Z" fill="white"/>
<path d="M639.826 0H402.43C392.765 0 384.93 8.19961 384.93 18.3143V153.041C384.93 163.155 392.765 171.355 402.43 171.355H639.826C649.491 171.355 657.327 163.155 657.327 153.041V18.3143C657.327 8.19961 649.491 0 639.826 0Z" fill="white"/>
<path opacity="0.1" d="M639.826 0H402.43C392.765 0 384.93 8.19961 384.93 18.3143V153.041C384.93 163.155 392.765 171.355 402.43 171.355H639.826C649.491 171.355 657.327 163.155 657.327 153.041V18.3143C657.327 8.19961 649.491 0 639.826 0Z" fill="#367CFF"/>
<path d="M582.294 91.8799H561.274C559.994 91.8799 558.957 92.9654 558.957 94.3045V143.063C558.957 144.402 559.994 145.487 561.274 145.487H582.294C583.574 145.487 584.611 144.402 584.611 143.063V94.3045C584.611 92.9654 583.574 91.8799 582.294 91.8799Z" fill="white"/>
<path d="M632.95 50.188H611.929C610.65 50.188 609.612 51.2735 609.612 52.6126V143.063C609.612 144.402 610.65 145.487 611.929 145.487H632.95C634.229 145.487 635.266 144.402 635.266 143.063V52.6126C635.266 51.2735 634.229 50.188 632.95 50.188Z" fill="white"/>
<path d="M430.327 91.8799H409.307C408.027 91.8799 406.99 92.9654 406.99 94.3045V143.063C406.99 144.402 408.027 145.487 409.307 145.487H430.327C431.607 145.487 432.644 144.402 432.644 143.063V94.3045C432.644 92.9654 431.607 91.8799 430.327 91.8799Z" fill="white"/>
<path d="M480.983 31.2317H459.962C458.683 31.2317 457.646 32.3172 457.646 33.6563V143.063C457.646 144.402 458.683 145.487 459.962 145.487H480.983C482.262 145.487 483.3 144.402 483.3 143.063V33.6563C483.3 32.3172 482.262 31.2317 480.983 31.2317Z" fill="white"/>
<path d="M531.638 79.8638H510.618C509.338 79.8638 508.301 80.9493 508.301 82.2884V143.062C508.301 144.401 509.338 145.487 510.618 145.487H531.638C532.918 145.487 533.955 144.401 533.955 143.062V82.2884C533.955 80.9493 532.918 79.8638 531.638 79.8638Z" fill="white"/>
<path d="M124.345 141.433H8.53682C3.82207 141.433 0 145.433 0 150.367V216.09C0 221.024 3.82207 225.024 8.53682 225.024H124.345C129.06 225.024 132.882 221.024 132.882 216.09V150.367C132.882 145.433 129.06 141.433 124.345 141.433Z" fill="white"/>
<path opacity="0.3" d="M124.345 141.433H8.53682C3.82207 141.433 0 145.433 0 150.367V216.09C0 221.024 3.82207 225.024 8.53682 225.024H124.345C129.06 225.024 132.882 221.024 132.882 216.09V150.367C132.882 145.433 129.06 141.433 124.345 141.433Z" fill="#367CFF"/>
<path d="M96.2795 186.254H86.0248C85.4007 186.254 84.8948 186.784 84.8948 187.437V211.223C84.8948 211.876 85.4007 212.406 86.0248 212.406H96.2795C96.9036 212.406 97.4095 211.876 97.4095 211.223V187.437C97.4095 186.784 96.9036 186.254 96.2795 186.254Z" fill="white"/>
<path d="M120.99 165.916H110.735C110.111 165.916 109.605 166.445 109.605 167.098V211.222C109.605 211.875 110.111 212.405 110.735 212.405H120.99C121.614 212.405 122.12 211.875 122.12 211.222V167.098C122.12 166.445 121.614 165.916 120.99 165.916Z" fill="white"/>
<path d="M22.1462 186.254H11.8915C11.2674 186.254 10.7615 186.784 10.7615 187.437V211.223C10.7615 211.876 11.2674 212.406 11.8915 212.406H22.1462C22.7703 212.406 23.2762 211.876 23.2762 211.223V187.437C23.2762 186.784 22.7703 186.254 22.1462 186.254Z" fill="white"/>
<path d="M46.8574 156.669H36.6027C35.9786 156.669 35.4727 157.198 35.4727 157.851V211.223C35.4727 211.876 35.9786 212.405 36.6027 212.405H46.8574C47.4815 212.405 47.9874 211.876 47.9874 211.223V157.851C47.9874 157.198 47.4815 156.669 46.8574 156.669Z" fill="white"/>
<path d="M71.5681 180.392H61.3134C60.6893 180.392 60.1833 180.922 60.1833 181.575V211.222C60.1833 211.875 60.6893 212.405 61.3134 212.405H71.5681C72.1922 212.405 72.6981 211.875 72.6981 211.222V181.575C72.6981 180.922 72.1922 180.392 71.5681 180.392Z" fill="white"/>
<path d="M110.408 437.717L578.143 437.717C589.629 437.717 598.941 427.972 598.941 415.952V57.5764C598.941 45.5561 589.629 35.8116 578.143 35.8116L110.408 35.8116C98.9216 35.8116 89.6101 45.5561 89.6101 57.5764L89.6101 415.952C89.6101 427.972 98.9216 437.717 110.408 437.717Z" fill="white"/>
<path d="M88.9163 415.952V57.5765C88.9227 51.6137 91.189 45.8971 95.218 41.6809C99.2469 37.4646 104.71 35.0929 110.407 35.0862H578.142C583.84 35.0929 589.303 37.4646 593.332 41.6809C597.361 45.8971 599.627 51.6137 599.634 57.5765V415.952C599.627 421.915 597.361 427.631 593.332 431.848C589.303 436.064 583.84 438.435 578.142 438.442H110.407C104.71 438.435 99.2469 436.064 95.218 431.848C91.189 427.631 88.9227 421.915 88.9163 415.952ZM110.407 36.5372C105.077 36.5437 99.9672 38.7624 96.1982 42.7066C92.4292 46.6509 90.309 51.9985 90.3028 57.5765V415.952C90.3088 421.53 92.4289 426.878 96.198 430.822C99.967 434.766 105.077 436.985 110.407 436.991H578.142C583.473 436.985 588.583 434.766 592.352 430.822C596.121 426.878 598.241 421.53 598.247 415.952V57.5765C598.241 51.9984 596.121 46.6507 592.352 42.7064C588.583 38.7622 583.473 36.5435 578.142 36.5372H110.407Z" fill="#292A2E"/>
<path d="M89.6101 57.5744V79.4748H598.938V57.5744C598.938 51.802 596.747 46.266 592.847 42.1843C588.946 38.1026 583.656 35.8096 578.14 35.8096H110.408C104.892 35.8096 99.602 38.1026 95.7016 42.1843C91.8013 46.266 89.6101 51.802 89.6101 57.5744Z" fill="#292A2E"/>
<path d="M571.421 100.285H372.962C368.091 100.285 364.142 104.418 364.142 109.516V256.434C364.142 261.532 368.091 265.664 372.962 265.664H571.421C576.292 265.664 580.241 261.532 580.241 256.434V109.516C580.241 104.418 576.292 100.285 571.421 100.285Z" fill="white"/>
<path opacity="0.15" d="M571.421 100.285H372.962C368.091 100.285 364.142 104.418 364.142 109.516V256.434C364.142 261.532 368.091 265.664 372.962 265.664H571.421C576.292 265.664 580.241 261.532 580.241 256.434V109.516C580.241 104.418 576.292 100.285 571.421 100.285Z" fill="#367CFF"/>
<path d="M402.93 120.922H385.778C384.981 120.922 384.335 121.598 384.335 122.432V243.518C384.335 244.352 384.981 245.028 385.778 245.028H402.93C403.727 245.028 404.373 244.352 404.373 243.518V122.432C404.373 121.598 403.727 120.922 402.93 120.922Z" fill="#FAFAFA"/>
<path opacity="0.6" d="M384.335 181.757H404.371V243.518C404.371 243.918 404.219 244.302 403.948 244.586C403.678 244.869 403.311 245.028 402.928 245.028H385.778C385.396 245.028 385.029 244.869 384.758 244.586C384.487 244.302 384.335 243.918 384.335 243.518V181.757Z" fill="#367CFF"/>
<path d="M441.849 120.922H424.697C423.9 120.922 423.254 121.598 423.254 122.432V243.518C423.254 244.352 423.9 245.028 424.697 245.028H441.849C442.645 245.028 443.291 244.352 443.291 243.518V122.432C443.291 121.598 442.645 120.922 441.849 120.922Z" fill="#FAFAFA"/>
<path opacity="0.6" d="M423.254 164.556H443.289V243.517C443.289 243.918 443.137 244.302 442.867 244.585C442.596 244.868 442.229 245.027 441.846 245.027H424.697C424.314 245.027 423.947 244.868 423.676 244.585C423.406 244.302 423.254 243.918 423.254 243.517V164.556Z" fill="#367CFF"/>
<path d="M558.604 120.922H541.452C540.656 120.922 540.01 121.598 540.01 122.432V243.518C540.01 244.352 540.656 245.028 541.452 245.028H558.604C559.401 245.028 560.047 244.352 560.047 243.518V122.432C560.047 121.598 559.401 120.922 558.604 120.922Z" fill="#FAFAFA"/>
<path opacity="0.6" d="M540.01 147.202H560.045V243.519C560.045 243.919 559.893 244.303 559.622 244.586C559.352 244.87 558.985 245.029 558.602 245.029H541.453C541.071 245.029 540.704 244.87 540.433 244.586C540.162 244.303 540.01 243.919 540.01 243.519V147.202H540.01Z" fill="#367CFF"/>
<path d="M480.768 120.922H463.616C462.819 120.922 462.173 121.598 462.173 122.432V243.518C462.173 244.352 462.819 245.028 463.616 245.028H480.768C481.564 245.028 482.21 244.352 482.21 243.518V122.432C482.21 121.598 481.564 120.922 480.768 120.922Z" fill="#FAFAFA"/>
<path opacity="0.6" d="M462.173 209.577H482.208V243.518C482.208 243.919 482.056 244.303 481.786 244.586C481.515 244.869 481.148 245.028 480.765 245.028H463.616C463.233 245.028 462.866 244.869 462.595 244.586C462.325 244.303 462.173 243.919 462.173 243.518V209.577Z" fill="#367CFF"/>
<path d="M519.686 120.922H502.534C501.738 120.922 501.092 121.598 501.092 122.432V243.518C501.092 244.352 501.738 245.028 502.534 245.028H519.686C520.483 245.028 521.129 244.352 521.129 243.518V122.432C521.129 121.598 520.483 120.922 519.686 120.922Z" fill="#FAFAFA"/>
<path opacity="0.6" d="M501.089 187.891H521.125V243.517C521.125 243.918 520.973 244.302 520.702 244.585C520.432 244.868 520.065 245.027 519.682 245.027H502.534C502.345 245.027 502.157 244.988 501.982 244.912C501.807 244.836 501.648 244.725 501.514 244.585C501.38 244.445 501.274 244.278 501.201 244.095C501.129 243.912 501.091 243.716 501.091 243.517V187.891H501.089Z" fill="#367CFF"/>
<path opacity="0.15" d="M567.614 281.853H374.38C367.407 281.853 361.754 287.768 361.754 295.066V404.565C361.754 411.863 367.407 417.779 374.38 417.779H567.614C574.588 417.779 580.241 411.863 580.241 404.565V295.066C580.241 287.768 574.588 281.853 567.614 281.853Z" fill="#367CFF"/>
<path d="M492.45 315.805C495.042 315.805 497.143 313.606 497.143 310.893C497.143 308.181 495.042 305.982 492.45 305.982C489.858 305.982 487.756 308.181 487.756 310.893C487.756 313.606 489.858 315.805 492.45 315.805Z" fill="#367CFF"/>
<path d="M492.45 340.842C495.042 340.842 497.143 338.643 497.143 335.931C497.143 333.218 495.042 331.019 492.45 331.019C489.858 331.019 487.756 333.218 487.756 335.931C487.756 338.643 489.858 340.842 492.45 340.842Z" fill="#262626"/>
<path d="M492.45 365.881C495.042 365.881 497.143 363.682 497.143 360.969C497.143 358.256 495.042 356.057 492.45 356.057C489.858 356.057 487.756 358.256 487.756 360.969C487.756 363.682 489.858 365.881 492.45 365.881Z" fill="white"/>
<path opacity="0.5" d="M492.45 390.918C495.042 390.918 497.143 388.719 497.143 386.007C497.143 383.294 495.042 381.095 492.45 381.095C489.858 381.095 487.756 383.294 487.756 386.007C487.756 388.719 489.858 390.918 492.45 390.918Z" fill="#367CFF"/>
<path d="M557.582 310.891C557.582 311.628 557.303 312.335 556.805 312.856C556.307 313.377 555.631 313.67 554.927 313.67H509.814C509.186 313.682 508.574 313.468 508.079 313.064C507.584 312.66 507.237 312.09 507.096 311.45C507.017 311.046 507.025 310.628 507.119 310.228C507.214 309.827 507.392 309.454 507.642 309.134C507.891 308.815 508.205 308.557 508.561 308.381C508.917 308.204 509.307 308.112 509.701 308.113H554.927C555.276 308.112 555.621 308.184 555.943 308.324C556.266 308.463 556.558 308.668 556.805 308.926C557.051 309.184 557.247 309.491 557.38 309.828C557.514 310.165 557.582 310.526 557.582 310.891Z" fill="white"/>
<path d="M557.582 335.93C557.582 336.667 557.302 337.374 556.804 337.895C556.307 338.416 555.631 338.709 554.927 338.709H509.841C509.472 338.714 509.107 338.643 508.766 338.498C508.424 338.353 508.114 338.139 507.854 337.866C507.593 337.594 507.387 337.27 507.249 336.913C507.11 336.556 507.041 336.173 507.046 335.788C507.082 335.076 507.377 334.406 507.871 333.916C508.365 333.425 509.02 333.152 509.701 333.152H554.927C555.276 333.152 555.621 333.224 555.943 333.363C556.265 333.503 556.558 333.708 556.804 333.965C557.051 334.223 557.247 334.53 557.38 334.867C557.513 335.204 557.582 335.565 557.582 335.93Z" fill="white"/>
<path d="M557.582 360.969C557.582 361.706 557.302 362.413 556.804 362.934C556.306 363.455 555.631 363.748 554.927 363.748H509.427C508.794 363.748 508.188 363.485 507.74 363.017C507.293 362.549 507.042 361.914 507.042 361.252V360.687C507.042 360.025 507.293 359.39 507.74 358.922C508.188 358.454 508.794 358.191 509.427 358.191H554.927C555.276 358.191 555.621 358.263 555.943 358.402C556.265 358.542 556.558 358.747 556.804 359.005C557.051 359.262 557.247 359.569 557.38 359.906C557.513 360.243 557.582 360.604 557.582 360.969Z" fill="white"/>
<path d="M557.582 386.008C557.582 386.745 557.302 387.452 556.804 387.973C556.306 388.494 555.631 388.787 554.927 388.787H509.824C509.195 388.799 508.582 388.586 508.085 388.182C507.589 387.778 507.239 387.209 507.095 386.569C507.016 386.165 507.024 385.747 507.119 385.347C507.213 384.946 507.391 384.573 507.641 384.253C507.89 383.934 508.204 383.677 508.56 383.5C508.916 383.323 509.305 383.231 509.699 383.231H554.925C555.274 383.231 555.619 383.303 555.942 383.442C556.264 383.582 556.557 383.786 556.803 384.044C557.05 384.302 557.246 384.608 557.379 384.945C557.513 385.282 557.582 385.643 557.582 386.008Z" fill="white"/>
<path d="M404.387 348.45C404.389 354.437 406.164 360.277 409.469 365.164C412.773 370.052 417.444 373.746 422.839 375.74L415.252 395.104C404.817 390.989 396.093 383.173 390.599 373.017C385.106 362.862 383.191 351.012 385.188 339.531C387.185 328.05 392.969 317.667 401.53 310.19C410.091 302.712 420.888 298.616 432.04 298.613V319.518C424.707 319.517 417.674 322.565 412.488 327.991C407.302 333.417 404.389 340.776 404.387 348.45Z" fill="#367CFF"/>
<path d="M479.667 348.45H459.691C459.691 340.776 456.778 333.415 451.592 327.989C446.407 322.562 439.374 319.513 432.04 319.513V298.609C444.672 298.609 456.786 303.86 465.717 313.207C474.649 322.554 479.667 335.231 479.667 348.45Z" fill="#262626"/>
<path d="M479.667 348.45C479.666 359.743 476.001 370.702 469.273 379.532C462.544 388.361 453.151 394.539 442.63 397.054L439.246 376.39C445.114 374.731 450.296 371.095 453.992 366.045C457.688 360.995 459.691 354.811 459.692 348.45H479.667Z" fill="white"/>
<path opacity="0.5" d="M442.629 397.054C433.517 399.214 424 398.536 415.252 395.101L422.839 375.74C428.121 377.68 433.839 377.907 439.246 376.392L442.629 397.054Z" fill="#367CFF"/>
<path opacity="0.15" d="M334.03 100.285H120.763C113.871 100.285 108.284 106.132 108.284 113.344V404.72C108.284 411.932 113.871 417.779 120.763 417.779H334.03C340.922 417.779 346.509 411.932 346.509 404.72V113.344C346.509 106.132 340.922 100.285 334.03 100.285Z" fill="#367CFF"/>
<path d="M291.85 224.197C291.85 238.684 287.745 252.846 280.054 264.892C272.363 276.938 261.431 286.327 248.641 291.871C235.851 297.415 221.778 298.866 208.2 296.039C194.622 293.213 182.15 286.237 172.361 275.993C162.572 265.749 155.905 252.697 153.205 238.488C150.504 224.279 151.89 209.551 157.188 196.166C162.485 182.782 171.457 171.342 182.968 163.293C194.478 155.244 208.011 150.948 221.855 150.948V224.197H291.85Z" fill="#FAFAFA"/>
<path opacity="0.6" d="M300.432 214.682H230.44V141.433C249.003 141.434 266.806 149.151 279.932 162.888C293.058 176.625 300.432 195.256 300.432 214.682Z" fill="#367CFF"/>
<path opacity="0.6" d="M149.274 338.999C151.867 338.999 153.968 336.8 153.968 334.087C153.968 331.375 151.867 329.176 149.274 329.176C146.682 329.176 144.581 331.375 144.581 334.087C144.581 336.8 146.682 338.999 149.274 338.999Z" fill="#367CFF"/>
<path d="M149.274 364.037C151.867 364.037 153.968 361.838 153.968 359.125C153.968 356.413 151.867 354.214 149.274 354.214C146.682 354.214 144.581 356.413 144.581 359.125C144.581 361.838 146.682 364.037 149.274 364.037Z" fill="#FAFAFA"/>
<path opacity="0.6" d="M310.076 334.089C310.076 334.826 309.797 335.533 309.299 336.054C308.801 336.575 308.125 336.868 307.421 336.868H166.639C166.011 336.88 165.398 336.666 164.903 336.262C164.408 335.858 164.061 335.288 163.92 334.647C163.841 334.243 163.849 333.826 163.944 333.425C164.038 333.025 164.217 332.651 164.466 332.332C164.716 332.012 165.03 331.755 165.386 331.578C165.742 331.402 166.131 331.31 166.526 331.31H307.421C307.77 331.31 308.115 331.382 308.438 331.522C308.76 331.661 309.052 331.866 309.299 332.124C309.546 332.382 309.741 332.689 309.875 333.026C310.008 333.363 310.077 333.724 310.076 334.089Z" fill="#367CFF"/>
<path d="M310.076 359.125C310.076 359.862 309.797 360.568 309.299 361.089C308.801 361.61 308.125 361.903 307.421 361.903H166.666C166.297 361.909 165.932 361.837 165.59 361.693C165.249 361.548 164.939 361.333 164.678 361.061C164.418 360.789 164.212 360.464 164.073 360.107C163.934 359.75 163.865 359.368 163.87 358.982C163.906 358.271 164.201 357.6 164.695 357.11C165.189 356.619 165.845 356.346 166.526 356.346H307.421C307.77 356.346 308.115 356.418 308.437 356.557C308.759 356.697 309.052 356.902 309.299 357.16C309.545 357.418 309.741 357.724 309.874 358.061C310.008 358.398 310.076 358.76 310.076 359.125Z" fill="white"/>
<path d="M622.18 700H53.4152C53.2865 700 53.1631 699.946 53.0721 699.851C52.9811 699.756 52.9299 699.627 52.9299 699.492C52.9299 699.357 52.9811 699.228 53.0721 699.133C53.1631 699.038 53.2865 698.984 53.4152 698.984H622.18C622.309 698.984 622.432 699.038 622.523 699.133C622.614 699.228 622.665 699.357 622.665 699.492C622.665 699.627 622.614 699.756 622.523 699.851C622.432 699.946 622.309 700 622.18 700Z" fill="#292A2E"/>
<path d="M198.117 667.444C198.117 667.444 201.247 684.424 216.437 685.373C231.626 686.322 228.334 698.984 228.334 698.984H170.283V668.629L198.117 667.444Z" fill="#367CFF"/>
<path d="M166.346 357.709C166.346 357.709 170.687 352.605 170.649 364.184C170.505 407.371 167.72 678.281 167.72 678.281L205.868 677.946L228.976 355.954L166.346 357.709Z" fill="#262626"/>
<path d="M263.256 667.444C263.256 667.444 266.386 684.424 281.578 685.37C296.769 686.316 293.475 698.981 293.475 698.981H235.422V668.629L263.256 667.444Z" fill="#367CFF"/>
<path d="M270.635 361.063C270.635 361.063 275.4 508.669 274.905 515.884L270.424 677.161L232.907 677.886L226.857 510.048C226.857 510.048 222.892 463.75 212.202 420.759C206.734 398.695 203.442 376.101 202.38 353.333L270.635 361.063Z" fill="#262626"/>
<path d="M221.142 465.716L224.27 415.65C224.27 415.65 227.483 436.464 227.483 454.404C227.483 463.173 225.757 497.891 225.757 497.891L221.142 465.716Z" fill="#0A0A0A"/>
<path d="M165.931 357.705L165.806 357.712C165.806 357.712 165.898 355.195 165.931 357.705Z" fill="#333333"/>
<path d="M166.088 357.705L165.963 357.712C165.963 357.712 166.053 355.195 166.088 357.705Z" fill="#333333"/>
<path d="M375.124 237.899C374.894 237.422 374.529 237.033 374.078 236.783C373.628 236.533 373.114 236.436 372.609 236.505C372.613 236.458 372.604 236.411 372.581 236.37C372.558 236.338 372.527 236.314 372.491 236.299C372.455 236.283 372.417 236.278 372.379 236.284L374.085 235.004C374.596 234.638 374.963 234.092 375.118 233.465C375.273 232.838 375.206 232.173 374.929 231.594C374.639 231.031 374.158 230.601 373.582 230.388C373.005 230.175 372.374 230.193 371.81 230.44C371.814 230.414 371.798 230.391 371.794 230.367L372.495 229.842C372.975 229.495 373.325 228.986 373.487 228.4C373.649 227.814 373.613 227.188 373.384 226.627C373.234 226.278 373.011 225.969 372.733 225.721C372.454 225.473 372.127 225.294 371.774 225.194C371.421 225.095 371.051 225.079 370.692 225.147C370.332 225.215 369.992 225.366 369.694 225.588L368.077 226.802C368.072 226.792 368.077 226.78 368.071 226.771C368.065 226.762 368.047 226.758 368.038 226.748C368.409 226.311 368.627 225.754 368.657 225.17C368.686 224.586 368.525 224.008 368.2 223.532C367.437 222.247 365.674 222.51 364.628 223.294L355.108 230.176L356.809 227.178C357.152 226.601 357.272 225.91 357.146 225.243C357.02 224.577 356.658 223.985 356.132 223.588C355.854 223.393 355.54 223.259 355.21 223.195C354.881 223.131 354.542 223.138 354.215 223.215C353.888 223.293 353.58 223.439 353.309 223.645C353.037 223.852 352.809 224.114 352.638 224.415L343.348 240.784C342.258 242.704 341.927 244.994 342.424 247.166C342.921 249.338 344.208 251.222 346.011 252.416C348.103 253.802 350.542 254.503 353.016 254.429C355.491 254.354 357.887 253.508 359.899 251.999L374.276 241.215C374.753 240.843 375.097 240.313 375.251 239.711C375.405 239.109 375.36 238.471 375.124 237.899Z" fill="#E98862"/>
<g opacity="0.25">
<path d="M358.656 233.602C358.691 233.653 358.743 233.687 358.802 233.697C358.86 233.708 358.921 233.694 358.969 233.658L368.015 227.102C368.04 227.084 368.061 227.061 368.077 227.035C368.093 227.009 368.104 226.979 368.11 226.949C368.115 226.918 368.114 226.886 368.108 226.856C368.102 226.825 368.09 226.796 368.073 226.77C368.056 226.745 368.034 226.723 368.009 226.706C367.984 226.689 367.956 226.677 367.926 226.672C367.897 226.666 367.867 226.666 367.837 226.673C367.808 226.68 367.78 226.692 367.756 226.71L358.71 233.266C358.661 233.302 358.627 233.358 358.616 233.42C358.605 233.482 358.618 233.546 358.653 233.598L358.656 233.602Z" fill="#0C0C0C"/>
</g>
<g opacity="0.25">
<path d="M361.309 237.857C361.344 237.908 361.397 237.942 361.455 237.952C361.514 237.962 361.574 237.948 361.623 237.912L371.718 230.596C371.768 230.56 371.801 230.505 371.812 230.442C371.823 230.38 371.809 230.316 371.775 230.264C371.739 230.214 371.687 230.18 371.628 230.169C371.569 230.158 371.508 230.17 371.458 230.204L361.364 237.521C361.314 237.557 361.28 237.612 361.269 237.674C361.259 237.737 361.272 237.801 361.306 237.853L361.309 237.857Z" fill="#0C0C0C"/>
</g>
<g opacity="0.25">
<path d="M364.158 242.482C364.193 242.533 364.245 242.567 364.303 242.577C364.362 242.587 364.422 242.573 364.471 242.538L372.524 236.701C372.574 236.666 372.607 236.61 372.618 236.548C372.629 236.486 372.616 236.422 372.581 236.37C372.547 236.318 372.494 236.282 372.435 236.271C372.376 236.26 372.314 236.274 372.265 236.31L364.212 242.146C364.162 242.182 364.128 242.237 364.117 242.3C364.107 242.362 364.12 242.426 364.154 242.478L364.158 242.482Z" fill="#0C0C0C"/>
</g>
<path d="M337.866 237.055L310.581 285.687L277.287 239.986L249.637 266.073L296.855 330.069L297.164 330.525C299.054 333.234 301.572 335.395 304.481 336.804C307.39 338.213 310.593 338.824 313.79 338.579C316.986 338.334 320.071 337.241 322.753 335.404C325.434 333.567 327.625 331.045 329.118 328.077L367.918 254.546L337.866 237.055Z" fill="#367CFF"/>
<path d="M307.905 291.535C307.846 291.535 307.788 291.519 307.736 291.489C307.684 291.459 307.64 291.415 307.609 291.362C307.578 291.309 307.561 291.248 307.558 291.186C307.556 291.124 307.569 291.062 307.596 291.007L310.272 285.521C310.313 285.436 310.386 285.371 310.474 285.341C310.561 285.312 310.656 285.32 310.738 285.364C310.82 285.408 310.882 285.484 310.91 285.575C310.938 285.667 310.93 285.766 310.889 285.852L308.214 291.337C308.185 291.396 308.141 291.446 308.086 291.481C308.032 291.516 307.969 291.535 307.905 291.535Z" fill="#0C0C0C"/>
<path d="M275.365 285.409L274.532 300.769L275.224 300.81L276.057 285.45L275.365 285.409Z" fill="#0C0C0C"/>
<path d="M187.444 174.247C187.444 174.247 186.166 191.344 182.419 197.507C171.631 215.249 168.341 235.317 178.829 245.949C189.317 256.58 256.957 257.55 262.348 233.449C266.887 213.162 257.654 210.864 255.586 194.055C254.651 186.45 252.024 170.497 252.024 170.497" fill="#0A0A0A"/>
<path d="M245.129 229.597C245.013 229.581 243.716 252.081 218.739 250.12C201.448 248.764 195.282 229.565 194.886 229.565C196.75 229.151 199.89 228.55 200.718 228.085C203.44 226.555 206.81 224.962 207.687 219.428C208.193 216.236 207.335 199.923 207.599 196.696L234.141 202.896C233.771 209.71 231.175 225.509 240.273 228.306C241.787 228.768 243.417 229.193 245.129 229.597Z" fill="#E98862"/>
<path opacity="0.52" d="M234.514 221.849C234.098 220.447 233.83 219.001 233.715 217.538C233.423 214.199 233.481 210.837 233.888 207.511C228.494 206.749 223.412 204.419 219.219 200.785C218.726 202.69 216.016 211.015 216.766 212.823C218.185 216.245 224.851 221.849 234.514 221.849Z" fill="#0C0C0C"/>
<path d="M230.995 214.768C220.52 215.7 207.029 211.156 204.386 196.54L202.001 183.351C199.357 168.734 204.55 155.432 217.702 152.828C230.852 150.223 242.825 160.126 245.468 174.742L246.524 180.581C247.539 186.189 249.687 213.103 230.995 214.768Z" fill="#E98862"/>
<path d="M242.776 181.217C243.686 181.217 244.425 180.445 244.425 179.492C244.425 178.539 243.686 177.767 242.776 177.767C241.866 177.767 241.127 178.539 241.127 179.492C241.127 180.445 241.866 181.217 242.776 181.217Z" fill="#0C0C0C"/>
<path d="M225.888 183.579C226.798 183.579 227.536 182.806 227.536 181.853C227.536 180.901 226.798 180.128 225.888 180.128C224.977 180.128 224.239 180.901 224.239 181.853C224.239 182.806 224.977 183.579 225.888 183.579Z" fill="#0C0C0C"/>
<path opacity="0.52" d="M235.154 194.505L235.18 194.5C235.713 194.391 236.239 194.251 236.757 194.08C237.53 193.82 238.543 193.39 238.411 192.658C238.261 191.825 234.456 183.271 234.022 182.299C234.004 182.256 233.978 182.218 233.945 182.187C233.912 182.155 233.874 182.13 233.832 182.114C233.79 182.098 233.746 182.09 233.701 182.092C233.657 182.094 233.613 182.105 233.573 182.125C233.532 182.145 233.496 182.173 233.466 182.207C233.436 182.241 233.412 182.282 233.397 182.326C233.382 182.37 233.376 182.416 233.378 182.463C233.38 182.509 233.391 182.555 233.41 182.597C235.033 186.241 237.646 192.229 237.747 192.79C237.661 193.05 236.377 193.543 235.055 193.805C234.968 193.821 234.89 193.872 234.839 193.947C234.787 194.021 234.766 194.114 234.779 194.206C234.792 194.297 234.838 194.379 234.909 194.435C234.979 194.49 235.067 194.515 235.154 194.504V194.505Z" fill="#0C0C0C"/>
<path opacity="0.52" d="M233.208 200.811C235.353 200.52 237.403 199.705 239.192 198.432C239.267 198.381 239.319 198.301 239.338 198.209C239.356 198.117 239.339 198.022 239.29 197.943C239.241 197.865 239.165 197.81 239.077 197.791C238.989 197.771 238.898 197.789 238.823 197.84C234.952 200.48 231.105 200.907 227.699 199.074C227.63 199.035 227.559 198.999 227.487 198.968C227.403 198.936 227.31 198.94 227.228 198.98C227.147 199.02 227.085 199.092 227.054 199.18C227.024 199.269 227.028 199.366 227.066 199.451C227.104 199.536 227.173 199.601 227.257 199.633C227.284 199.645 227.327 199.669 227.39 199.706C229.181 200.672 231.207 201.057 233.208 200.811Z" fill="#0C0C0C"/>
<path d="M191.479 187.947L203.269 185.685C212.197 181.904 214.897 165.73 214.897 165.73C214.897 165.73 225.742 176.792 252.022 170.5C252.022 170.5 246.754 132.145 207.927 143.294C195.407 146.89 186.422 160.093 187.541 177.738C188.327 190.107 191.479 187.947 191.479 187.947Z" fill="#0A0A0A"/>
<path d="M206.008 200.831C202.012 201.622 197.963 197.79 197.204 193.607C196.445 189.425 199.27 186.477 203.267 185.686L205.832 188.08L209.441 200.15L206.008 200.831Z" fill="#E98862"/>
<path d="M236.432 175.305C237.598 174.517 238.944 174.072 240.331 174.017C241.014 173.985 241.697 174.06 242.358 174.241C243.013 174.417 243.644 174.678 244.236 175.019C244.32 175.062 244.384 175.138 244.414 175.23C244.444 175.322 244.439 175.423 244.398 175.511C244.358 175.599 244.286 175.666 244.198 175.699C244.11 175.731 244.014 175.726 243.93 175.685L243.905 175.672C243.357 175.391 242.778 175.182 242.181 175.052C241.591 174.92 240.985 174.881 240.384 174.939C239.191 175.043 238.047 175.476 237.066 176.193L237.034 176.218C236.978 176.261 236.914 176.292 236.846 176.309C236.778 176.326 236.708 176.329 236.639 176.317C236.57 176.306 236.504 176.28 236.445 176.242C236.385 176.204 236.334 176.154 236.293 176.095C236.252 176.036 236.222 175.969 236.206 175.899C236.19 175.828 236.187 175.754 236.198 175.682C236.209 175.61 236.233 175.541 236.27 175.479C236.306 175.417 236.354 175.363 236.41 175.32L236.432 175.305Z" fill="#0C0C0C"/>
<path d="M225.918 177.895C224.756 177.597 223.539 177.626 222.391 177.98C221.811 178.154 221.259 178.418 220.754 178.764C220.242 179.113 219.774 179.527 219.361 179.998L219.342 180.017C219.278 180.085 219.191 180.124 219.099 180.126C219.007 180.127 218.919 180.092 218.852 180.026C218.785 179.961 218.745 179.871 218.74 179.775C218.736 179.68 218.767 179.586 218.827 179.514C219.261 178.972 219.759 178.489 220.31 178.078C220.863 177.659 221.474 177.33 222.122 177.102C223.434 176.63 224.844 176.536 226.203 176.829C226.341 176.86 226.461 176.947 226.538 177.071C226.615 177.195 226.641 177.346 226.611 177.49C226.582 177.635 226.499 177.761 226.38 177.841C226.262 177.921 226.118 177.949 225.98 177.918L225.958 177.912L225.918 177.895Z" fill="#0C0C0C"/>
<path opacity="0.52" d="M233.665 204.13C234.053 204.084 234.437 204.003 234.813 203.889C234.899 203.863 234.972 203.802 235.015 203.72C235.058 203.638 235.069 203.541 235.044 203.451C235.019 203.361 234.962 203.285 234.883 203.24C234.805 203.194 234.712 203.183 234.626 203.209C232.365 203.89 231.08 202.991 231.027 202.949C230.953 202.895 230.862 202.874 230.774 202.891C230.685 202.907 230.607 202.959 230.555 203.036C230.504 203.113 230.484 203.209 230.499 203.301C230.515 203.394 230.565 203.476 230.639 203.53C231.551 204.09 232.62 204.302 233.665 204.13Z" fill="#0C0C0C"/>
<path d="M203.295 185.529L203.178 185.187C218.115 179.576 214.462 164.237 214.424 164.082L214.758 163.99C214.798 164.148 218.534 179.804 203.295 185.529Z" fill="#0C0C0C"/>
<path opacity="0.1" d="M224.502 195.521C226.226 195.327 227.514 194.096 227.377 192.773C227.241 191.449 225.733 190.534 224.009 190.728C222.285 190.922 220.998 192.153 221.134 193.476C221.27 194.8 222.778 195.715 224.502 195.521Z" fill="#0C0C0C"/>
<path opacity="0.1" d="M242.81 190.514C242.949 191.836 244.457 192.75 246.182 192.559C246.48 192.525 246.774 192.459 247.059 192.362C247.156 190.789 247.177 189.275 247.149 187.873C246.672 187.742 246.176 187.706 245.687 187.766C243.962 187.956 242.675 189.187 242.81 190.514Z" fill="#0C0C0C"/>
<path d="M276.161 279.132C275.374 288.804 271.548 349.149 270.791 361.063H170.704C170.115 350.318 163.311 303.332 161.078 282.319C158.946 262.268 154.764 252.229 157.829 246.301C162.839 236.613 176.528 231.014 185.862 229.692C191.562 228.885 200.134 228.306 200.134 228.306C200.134 228.306 200.86 243.672 218.168 244.527C241.728 245.688 240.155 228.306 240.272 228.306C244.089 228.306 265.893 230.834 271.228 234.143C285.762 243.152 277.831 258.638 276.161 279.132Z" fill="#367CFF"/>
<path d="M341.128 285.889L331.48 334.96C331.285 335.957 330.77 336.853 330.02 337.5C329.27 338.147 328.33 338.505 327.358 338.515L260.926 339.107C260.292 339.112 259.665 338.97 259.091 338.689C258.517 338.408 258.01 337.997 257.607 337.484C257.205 336.972 256.917 336.372 256.765 335.728C256.612 335.085 256.6 334.413 256.727 333.764L266.375 284.691C266.571 283.695 267.087 282.799 267.838 282.153C268.589 281.507 269.529 281.15 270.501 281.141L336.933 280.549C337.567 280.544 338.193 280.687 338.766 280.968C339.34 281.249 339.846 281.66 340.248 282.172C340.65 282.684 340.938 283.283 341.09 283.926C341.243 284.569 341.256 285.24 341.128 285.889Z" fill="#292A2E"/>
<path d="M279.181 320.746C279.217 321.392 279.028 322.029 278.649 322.541C278.271 323.053 277.729 323.405 277.122 323.531L275.077 324.003C275.114 324.016 275.147 324.037 275.173 324.067C275.2 324.096 275.219 324.131 275.23 324.17C275.235 324.215 275.225 324.261 275.202 324.3C275.694 324.445 276.13 324.746 276.451 325.162C276.771 325.578 276.96 326.089 276.991 326.622C276.993 327.244 276.796 327.848 276.43 328.338C276.064 328.828 275.551 329.174 274.973 329.321L257.704 333.333C256.821 333.54 255.919 333.645 255.014 333.645C252.999 333.645 251.013 333.131 249.229 332.149C247.446 331.167 245.917 329.746 244.775 328.008C243.564 326.169 243.086 323.908 243.443 321.706C243.801 319.505 244.965 317.536 246.688 316.219L261.378 304.981C261.702 304.733 262.078 304.571 262.474 304.509L261.122 311.379L261.482 311.292L261.559 311.278L272.824 308.877C274.079 308.586 275.798 309.065 276.02 310.56C276.139 311.132 276.069 311.729 275.823 312.255C275.576 312.78 275.167 313.203 274.661 313.454C274.668 313.462 274.682 313.469 274.682 313.483C274.682 313.498 274.675 313.505 274.675 313.52L276.623 313.07C276.98 312.987 277.349 312.988 277.705 313.073C278.061 313.158 278.395 313.324 278.682 313.56C278.969 313.796 279.202 314.096 279.366 314.437C279.529 314.779 279.617 315.155 279.625 315.537C279.625 316.146 279.423 316.737 279.054 317.209C278.685 317.682 278.172 318.006 277.601 318.127L276.762 318.322C276.755 318.351 276.762 318.38 276.748 318.402C277.359 318.407 277.947 318.65 278.397 319.083C278.846 319.516 279.126 320.109 279.181 320.746Z" fill="#E98862"/>
<g opacity="0.25">
<path d="M263.461 315.901C263.474 315.962 263.51 316.015 263.56 316.048C263.61 316.082 263.67 316.094 263.729 316.081L274.507 313.768C274.537 313.761 274.565 313.749 274.589 313.732C274.614 313.714 274.635 313.692 274.652 313.666C274.668 313.639 274.68 313.61 274.685 313.58C274.691 313.549 274.691 313.517 274.685 313.487C274.679 313.456 274.667 313.427 274.65 313.401C274.633 313.375 274.612 313.353 274.587 313.336C274.562 313.318 274.534 313.307 274.505 313.301C274.475 313.295 274.445 313.295 274.416 313.301L263.637 315.614C263.578 315.627 263.526 315.664 263.493 315.716C263.46 315.769 263.448 315.834 263.46 315.896L263.461 315.901Z" fill="#0C0C0C"/>
</g>
<g opacity="0.25">
<path d="M264.305 320.904C264.318 320.965 264.354 321.018 264.404 321.051C264.454 321.085 264.514 321.097 264.572 321.084L276.602 318.503C276.661 318.49 276.713 318.453 276.746 318.401C276.779 318.348 276.791 318.284 276.779 318.222C276.765 318.161 276.73 318.108 276.68 318.073C276.63 318.039 276.569 318.026 276.51 318.036L264.479 320.618C264.45 320.624 264.422 320.636 264.398 320.654C264.373 320.671 264.352 320.694 264.335 320.72C264.319 320.746 264.307 320.775 264.302 320.806C264.296 320.836 264.296 320.868 264.302 320.899L264.305 320.904Z" fill="#0C0C0C"/>
</g>
<g opacity="0.25">
<path d="M265.189 326.327C265.202 326.387 265.238 326.44 265.288 326.474C265.337 326.507 265.398 326.519 265.456 326.507L275.052 324.447C275.081 324.441 275.109 324.428 275.133 324.411C275.158 324.393 275.179 324.371 275.196 324.345C275.212 324.319 275.224 324.289 275.229 324.259C275.235 324.228 275.235 324.196 275.229 324.166C275.223 324.135 275.211 324.106 275.194 324.08C275.178 324.054 275.156 324.032 275.131 324.015C275.106 323.998 275.078 323.986 275.049 323.98C275.02 323.974 274.989 323.974 274.96 323.98L265.365 326.039C265.306 326.052 265.254 326.089 265.22 326.142C265.187 326.194 265.175 326.259 265.187 326.321L265.189 326.327Z" fill="#0C0C0C"/>
</g>
<path d="M256.635 340.483L162.944 358.202C160.021 358.534 157.064 358.153 154.305 357.089C151.546 356.024 149.06 354.305 147.042 352.067C145.025 349.828 143.53 347.131 142.676 344.186C141.822 341.242 141.631 338.13 142.119 335.096L155.231 253.509C155.644 250.928 156.539 248.457 157.865 246.238C159.191 244.019 160.921 242.095 162.958 240.577C164.995 239.058 167.297 237.974 169.734 237.387C172.171 236.8 174.695 236.722 177.161 237.156C179.627 237.59 181.987 238.529 184.107 239.918C186.226 241.307 188.063 243.12 189.513 245.252C190.962 247.385 191.996 249.795 192.555 252.346C193.114 254.897 193.187 257.538 192.77 260.118L183.827 316.282L252.516 307.255L256.635 340.483Z" fill="#367CFF"/>
<path d="M162.944 358.565C162.857 358.564 162.774 358.53 162.71 358.469C162.646 358.408 162.607 358.324 162.599 358.234C162.591 358.144 162.616 358.054 162.669 357.982C162.721 357.91 162.797 357.861 162.883 357.845L256.249 340.188L252.217 307.66L183.87 316.642C183.817 316.649 183.762 316.644 183.711 316.625C183.66 316.606 183.614 316.575 183.577 316.534C183.54 316.493 183.512 316.444 183.496 316.39C183.48 316.336 183.476 316.278 183.485 316.223L189.17 280.327C189.177 280.279 189.192 280.234 189.216 280.194C189.24 280.153 189.272 280.118 189.309 280.09C189.346 280.062 189.388 280.042 189.433 280.032C189.477 280.021 189.523 280.02 189.568 280.029C189.613 280.036 189.656 280.053 189.695 280.078C189.734 280.104 189.767 280.136 189.794 280.175C189.82 280.214 189.839 280.258 189.849 280.304C189.86 280.351 189.861 280.399 189.854 280.446L184.244 315.861L252.472 306.894C252.563 306.882 252.655 306.909 252.727 306.967C252.8 307.026 252.847 307.112 252.859 307.208L256.978 340.435C256.99 340.528 256.967 340.621 256.914 340.696C256.862 340.771 256.784 340.822 256.696 340.839L163.006 358.559C162.985 358.563 162.964 358.564 162.944 358.565Z" fill="#0C0C0C"/>
<path d="M183.774 315.925L177.748 316.934L177.857 317.651L183.884 316.642L183.774 315.925Z" fill="#0C0C0C"/>
<path d="M650.886 401.381H445.851C437.334 401.381 430.43 408.606 430.43 417.518V490.986C430.43 499.898 437.334 507.123 445.851 507.123H650.886C659.403 507.123 666.307 499.898 666.307 490.986V417.518C666.307 408.606 659.403 401.381 650.886 401.381Z" fill="white"/>
<path opacity="0.4" d="M650.886 401.381H445.851C437.334 401.381 430.43 408.606 430.43 417.518V490.986C430.43 499.898 437.334 507.123 445.851 507.123H650.886C659.403 507.123 666.307 499.898 666.307 490.986V417.518C666.307 408.606 659.403 401.381 650.886 401.381Z" fill="#367CFF"/>
<path d="M650.886 507.845H445.851C441.579 507.84 437.483 506.062 434.462 502.9C431.441 499.739 429.742 495.453 429.737 490.982V417.521C429.742 413.05 431.441 408.764 434.462 405.603C437.483 402.441 441.579 400.663 445.851 400.658H650.886C655.158 400.663 659.254 402.441 662.275 405.603C665.296 408.764 666.995 413.05 667 417.521V490.985C666.994 495.455 665.295 499.741 662.274 502.901C659.253 506.062 655.158 507.84 650.886 507.845ZM445.851 402.106C441.946 402.111 438.202 403.736 435.441 406.626C432.68 409.516 431.127 413.435 431.123 417.521V490.985C431.128 495.07 432.682 498.987 435.443 501.876C438.204 504.765 441.947 506.39 445.851 506.394H650.886C654.79 506.39 658.534 504.764 661.295 501.875C664.056 498.986 665.609 495.068 665.613 490.982V417.521C665.609 413.435 664.056 409.518 661.295 406.628C658.534 403.739 654.79 402.114 650.886 402.109L445.851 402.106Z" fill="#292A2E"/>
<path d="M451.582 484.592C451.395 484.592 451.211 484.54 451.051 484.44C450.89 484.34 450.758 484.197 450.669 484.026C450.579 483.854 450.536 483.661 450.542 483.465C450.549 483.27 450.606 483.08 450.707 482.916C450.932 482.553 473.592 446.294 509.603 446.294C528.419 446.294 539.82 453.892 550.846 461.239C561.052 468.041 570.692 474.466 585.609 474.466C616.108 474.466 640.677 428.114 640.921 427.646C641.053 427.392 641.276 427.204 641.541 427.123C641.806 427.042 642.09 427.074 642.332 427.212C642.574 427.351 642.754 427.584 642.832 427.861C642.909 428.138 642.879 428.436 642.746 428.69C641.724 430.648 617.329 476.645 585.609 476.645C570.086 476.645 560.198 470.054 549.729 463.078C538.954 455.896 527.813 448.472 509.603 448.472C474.743 448.472 452.676 483.737 452.457 484.093C452.363 484.247 452.233 484.373 452.08 484.46C451.927 484.547 451.756 484.593 451.582 484.592Z" fill="white"/>
<path d="M642.125 432.428C644.373 432.428 646.195 430.521 646.195 428.169C646.195 425.817 644.373 423.911 642.125 423.911C639.878 423.911 638.056 425.817 638.056 428.169C638.056 430.521 639.878 432.428 642.125 432.428Z" fill="white"/>
</g>
<defs>
<clipPath id="clip0_288_830">
<rect width="667" height="700" fill="white"/>
</clipPath>
</defs>
</svg>
